<?xml version="1.0" encoding="utf-8"?>
<!-- Generator: Adobe Illustrator 21.0.0, SVG Export Plug-In . SVG Version: 6.00 Build 0)  -->
<svg version="1.1" id="Слой_1" xmlns="http://www.w3.org/2000/svg" xmlns:xlink="http://www.w3.org/1999/xlink" x="0px" y="0px"
     viewBox="0 0 177 96" style="enable-background:new 0 0 177 96;" xml:space="preserve">
<style type="text/css">
    .st0{fill-rule:evenodd;clip-rule:evenodd;fill:#FFFFFF;}
</style>
<path class="st0" d="M3.5,86H8v1.2H5.2v1.3h2.6v1.2H5.2v1.5h2.9v1.2H3.5V86L3.5,86z M161.8,86h4.9v1.3h-1.6v5.2h-1.7v-5.2h-1.6V86
    L161.8,86z M147.2,86h2.1l1.9,3.9c0.1,0.1,0.1,0.3,0.2,0.5c0.1,0.2,0.2,0.5,0.3,0.8c-0.1-0.3-0.1-0.6-0.1-0.9c0-0.3,0-0.5,0-0.7V86
    h1.6v6.4h-2.1l-1.9-4c-0.1-0.2-0.2-0.4-0.3-0.6c-0.1-0.2-0.1-0.5-0.2-0.7c0.1,0.4,0.1,0.7,0.1,1.1c0,0.3,0,0.6,0,0.9v3.4h-1.6V86
    L147.2,86z M134.7,86h4.5v1.2h-2.8v1.3h2.6v1.2h-2.6v1.5h2.9v1.2h-4.6V86L134.7,86z M119.1,86h2.5l1.1,3.9c0,0.2,0.1,0.3,0.1,0.5
    c0,0.2,0,0.4,0.1,0.6c0-0.2,0-0.5,0.1-0.7c0-0.2,0.1-0.4,0.1-0.5l1.1-3.8h2.5v6.4h-1.5v-4.3c0-0.2,0-0.4,0-0.6c0-0.2,0-0.5,0.1-0.7
    c0,0.2-0.1,0.4-0.1,0.6c0,0.2-0.1,0.3-0.1,0.5l-1.4,4.6h-1.5l-1.4-4.5c0-0.2-0.1-0.3-0.1-0.5c0-0.2-0.1-0.4-0.1-0.6
    c0,0.3,0,0.6,0.1,0.8c0,0.2,0,0.4,0,0.6v4.3h-1.4V86L119.1,86z M105.2,86h2.1l1.9,3.9c0.1,0.1,0.1,0.3,0.2,0.5
    c0.1,0.2,0.2,0.5,0.3,0.8c-0.1-0.3-0.1-0.6-0.1-0.9c0-0.3,0-0.5,0-0.7V86h1.6v6.4h-2.1l-1.9-4c-0.1-0.2-0.2-0.4-0.3-0.6
    c-0.1-0.2-0.1-0.5-0.2-0.7c0.1,0.4,0.1,0.7,0.1,1.1c0,0.3,0,0.6,0,0.9v3.4h-1.6V86L105.2,86z M95.1,86h1.7v6.4h-1.7V86L95.1,86z
     M84.3,87.5l-0.8,2.4h1.6L84.3,87.5L84.3,87.5z M83.3,86h2.1l2.4,6.4h-1.8l-0.5-1.4H83l-0.5,1.4h-1.7L83.3,86L83.3,86z M69.2,86h4.9
    v1.3h-1.6v5.2h-1.7v-5.2h-1.6V86L69.2,86z M58.3,87.2v1.7h0.6c0.4,0,0.7-0.1,0.8-0.2c0.2-0.1,0.3-0.3,0.3-0.6c0-0.3-0.1-0.5-0.3-0.6
    c-0.2-0.1-0.5-0.2-1-0.2H58.3L58.3,87.2z M56.6,86h2.6c0.9,0,1.5,0.1,1.9,0.4c0.4,0.3,0.6,0.7,0.6,1.3c0,0.4-0.1,0.8-0.3,1
    c-0.2,0.3-0.5,0.4-0.9,0.5c0.3,0.1,0.6,0.5,0.8,1.1c0,0,0,0,0,0l0.8,2.1h-1.8l-0.6-1.8c-0.1-0.3-0.2-0.5-0.4-0.6
    C59.1,90,58.9,90,58.6,90h-0.2v2.5h-1.7V86L56.6,86z M43.8,86h4.5v1.2h-2.8v1.3h2.6v1.2h-2.6v1.5h2.9v1.2h-4.6V86L43.8,86z M30.9,86
    h4.9v1.3h-1.6v5.2h-1.7v-5.2h-1.6V86L30.9,86z M16.3,86h2.1l1.9,3.9c0.1,0.1,0.1,0.3,0.2,0.5c0.1,0.2,0.2,0.5,0.3,0.8
    c-0.1-0.3-0.1-0.6-0.1-0.9c0-0.3,0-0.5,0-0.7V86h1.6v6.4H20l-1.9-4c-0.1-0.2-0.2-0.4-0.3-0.6c-0.1-0.2-0.1-0.5-0.2-0.7
    c0.1,0.4,0.1,0.7,0.1,1.1c0,0.3,0,0.6,0,0.9v3.4h-1.6V86z"/>
<path class="st0" d="M158.9,76.3V59.6c0.1-0.7,0.4-1.2,0.7-1.9c0.9-2,1.3-3.1,1.3-5.3c0.1-3.4,0.1-6.9,0.2-10.3c0-1,0-1.5,0.1-1.9
    c0.6-1.5,1.1-1.2,1.3-3.2c0.1-0.7,0.3-1.3,0.7-2.2c0.9-1.7,0.5-4.9,0.4-6.7c-0.5-1.7-1.2-3.5-2.5-4.8c-0.3-0.3-0.7-0.6-1-0.9
    c-0.5-0.8-0.8-1.2-1.4-1.6V7.6c0.5,0.1,1,0.3,1.3,0.4c0.5,0.1,0.7,0.7,1.2,0.8c2.3,0.4,1.9-0.3,3.6,1.5c0.5,0.5,1.4,0.9,1.8,1.6
    c0.6,0.9,0.6,2,1,3c0.3,0.8,0.9,1.4,1,2.2c0.4,2.2,0,4.4,0.2,6.6c0.1,0.7,0.8,1.4,0.8,2c0.3,2.6,0.3,5.1,0,7.6
    c-0.1,0.9-0.8,1.2-1,2.1c-0.2,1.4,0.2,2.9,0.1,4.4c0,0.7-0.4,1.4-0.8,2c-0.3,0.4-0.9,0.6-1.1,1.1c-0.5,1.2-0.4,2.9-0.6,4.2
    c-0.1,2.5,0,4.5,0.1,7c0.1,1.8,0.3,3.4,0,5.2c-0.1,0.6-0.6,1-0.7,1.6c-0.3,1.7,0,3.4-0.2,5.1c0,0.3-0.5,0.6-0.5,0.9
    c-0.1,1.6-0.2,3.8-0.9,5.6c-0.4,1.2-1.5,2.3-2.6,3C160.9,75.9,159.9,76,158.9,76.3z M158.9,7.6v13.2c-0.1-0.1-0.3-0.2-0.5-0.3
    c-1-0.5-1.2-0.5-2.3-0.4c-1.8,0.1-2.2-0.6-2.2,1.3c0,3.1,0.1,6.2,0.1,9.3c0,1.2-0.1,2,0.5,3.1c0.5,1.4,0.7,2,0.8,3.5
    c0.6,0.7,0.6,0.9,0.7,1.9c0,4.5-0.1,8.9-0.1,13.4c0,4.2,0,8.4-0.1,12.6c0,0.8,0.2,1.4,0.4,1.5c0.2,0.1,0.6-0.2,1-1.1
    c0.3-0.7,0.6-1.4,0.9-2.2c0.5-1.2,0.8-1.8,0.8-3.1c0-0.3,0-0.5,0.1-0.8v16.7c-0.1,0-0.2,0-0.3,0.1c-0.7,0.2-1.6,0.1-2.2,0.4
    c-0.4,0.2-0.1,0.2-0.5,0.5c-0.2,0.2-0.6,0.2-0.8,0c-0.3-0.2-0.2-0.3-0.5-0.5c-0.5-0.2-1.2-0.2-1.7,0c-0.4,0.2-0.2,0.4-0.6,0.5
    c-0.8,0.2-1.7,0.4-2.6,0.3c-0.5,0-0.9,0.2-1.1-0.2c-0.2-0.6,0.3-0.7,0.6-1c0.5-0.5,0.9-0.9,1.1-1.8c0.1-0.3,0.4-0.9,0.5-1.4
    c0.1-0.8-0.1-1.6-0.3-2.2c-0.3-0.7-0.8-1-0.6-1.7c0.1-0.4,1-0.5,1.7-0.8c0.4-0.2,0.7-0.5,0.8-0.8c0.2-0.4-0.4-0.3-0.6-0.9
    c-0.3-0.6-0.3-1.4-0.6-1.8c-0.4-0.7-1.1-1.7-1.1-2.5c-0.1-2.2,0.6-4.4,0.7-6.6c0.1-1.8,0.5-2.2,0.4-4c-0.1-0.9-0.6-1.6-1.1-2.5
    c-0.4-0.8-1-1.5-1.2-2.3c-0.4-1.3,0-2.8-0.2-4.1c0-0.3-0.7-0.6-0.7-0.8c-0.2-1.8,0-3.7-0.1-5.5c-0.1-0.3-0.3-0.4-0.4-0.7
    c-0.1-1,0-2,0-2.9c0-0.8-0.1-1.4-0.1-2.3c0-0.3-0.3-0.6-0.3-0.9c-0.1-2,0-4.1,0-6.1c0-2.1-0.2-4,0-6.1c0-0.4,0.7-0.3,0.7-0.7
    c-0.1-1.6-0.2-2.2-0.2-3.8c0-0.2,0.4-0.6,0.4-0.8c0.1-1.3,0.3-2.7-0.1-3.8c-0.2-0.8-0.9-1.1-1.6-1.6c-0.5-0.3-0.9-0.8-1.4-1.2V2.9
    c0.3,0,0.7,0.1,1,0.1c0.3,0,0.7,0.5,1,0.6c0.6,0.2,1-0.1,1.6,0.1c0.5,0.1,2.4,1.1,2.9,1.4c0.7,0.4,0.9,1,1.7,1.3
    c0.1,0.1,2.4,0.7,2.7,0.8c0.6,0.2,1-0.3,1.6-0.1C157.8,7.3,158.3,7.4,158.9,7.6L158.9,7.6z M145,77.2c0.7,0,0.9-0.7,1.1-1.8
    c0.5-2.2,0.6-4.1,1-6.3c0.2-1.1,0.1-2.2,0.2-3.3c0.1-1.6,0.2-3.1,0.1-4.7c0-0.7,0-1.5-0.5-2.1c-0.4-0.4-1.4,0-1.6-0.5
    c-0.2-0.7,0.9-1.3,0.9-2.1c-0.3-2-0.6-3.9-0.6-5.9c0-1.5-0.2-1.6-0.6-1.7V77.2z M145,2.9v2.8c-0.2-0.2-0.3-0.3-0.5-0.4
    c-0.7-0.6-1.2-1-1.8-1.8c-0.3-0.5,0.2-0.5,0.8-0.6C144,2.9,144.5,2.9,145,2.9L145,2.9z M145,48.9v28.3c-0.3,0-0.8-0.2-1.4-0.5
    c-0.4-0.2-0.8-0.5-1.1-0.6c-1.3-0.8-1.9-2.4-3.3-3.1c-0.5-0.3-1.3-0.3-2-0.3c-1.7,0-1.5-0.5-1-2.1c0.5-1.5,1.5-2.8,2-4.4
    c0.3-1.1,0.4-2.3,0.3-3.5c-0.1-2.7-0.2-5.4-0.7-8c-0.4-2.3-1.1-4.6-1.9-6.8c-0.2-0.5-0.9-0.4-1-0.9c-0.2-1.7,0.7-3.1,0.4-4.8
    c-0.2-1-0.8-2-1.5-2.9V30c0.4-0.3,0.7-0.6,1-0.9c0.6-0.6,0.5-1.6,0.7-2c0.3-0.6,0.9-1.2,1-2c0.1-1-0.2-1.8,0.4-2.4
    c0.3-0.2,0.5-3,0.5-3.6c0-0.9-0.9-2.2-2-3.3c-0.6-0.6-1.3-1.2-1.7-1.7V5.8c0.4,0.2,0.8,0.3,1.2,0.5c1.1,0.3,2-0.1,3.1,0.4
    c1.3,0.6,2.5,1.6,3.3,2.8c1.4,2.1,2.6,4.3,3.1,6.8c0.3,1.7-0.6,3.3-0.8,5c-0.1,0.9,0.3,2,0,2.8c-0.7,1.9-1.3,3.6-2.6,5.2
    c-1,1.1-2,2.1-4,2.4c-0.3,0.3-0.3,1.2,0,1.5c0.3,0.3,0.9-0.2,1.2,0c1.1,0.8,2.6,1.6,3.3,2.8c0.3,0.5-0.5,0.9-0.2,1.4
    c0.2,0.3,0.6-0.1,0.8,0.2c0.6,0.7,1.1,1.7,1.2,2.6c0.3,2.1,0,4.5,0.2,6.6c0.1,0.7,0.2,1.2,0.7,1.8C144.5,48.8,144.8,48.8,145,48.9z
     M133.9,5.8V14c-0.1-0.1-0.2-0.2-0.2-0.3c-0.7-1-1.2-1.4-2-1.6c-1.5-0.3-1.4-0.2-1.4,1.1c0,1,0.1,2.1,0.1,3.2c0,1.4-0.1,2.6-0.1,4
    c0,1.5,0.1,3.1,0.1,4.5c0,1.2-0.2,3.4-0.1,4.4c0.1,1.3,0.2,1.5,1.9,1.5c0.5,0,1.1-0.3,1.7-0.8v9.3c-0.2-0.3-0.5-0.6-0.7-0.9
    c-0.3-0.3-0.6-1-0.9-0.7c-0.5,1.1-1,2.6-1.6,4c-0.2,1,0.2,2.1,0.3,3.1c0.3,2.9,0.5,5.8,0.9,8.7c0.2,1.3,0.6,2.5,0.5,3.8
    c0,0.5-1,0.4-1,0.9c0,0.5,0.8,0.9,0.9,1.4c0.2,1.4,0.1,2.9,0,4.4c0,0.5-0.4,0.9-0.5,1.4c-0.1,0.4-0.1,0.8,0,1.2
    c0.1,0.5,0.6,0.9,0.7,1.4c0.2,1.4,0.1,2.8,0,4.2c0,0.4-0.5,0.7-0.5,1c-0.3,1.8,0.1,4.8-0.5,5.4c-1.2-2.6-2.4-5.3-4.2-6.8
    c-1.1-0.9-2.2-1.7-3.2-2.3c-1-0.6-1.8-1.1-1.5-2.1c0.6-2.5,1.8-4.7,2.9-7.7c0.3-0.7,0.7-1.6,0.6-2.3c-0.1-0.5-0.8-0.7-0.9-1.2
    c-0.3-5.4,0-10.7-0.1-16.1c-0.1-1.7-0.4-3.7-0.9-5.2c-0.1-0.4-0.4-0.7-0.5-1.1c-0.1-0.9,0-1.5-0.1-2.4c-0.1-0.7-0.6-1.4-0.7-2.1
    c-0.3-2.3-0.1-4.1-0.6-6.3c-0.2-0.7-0.3-1.4-0.4-2c-0.4-1.9-1.5-3.8-0.5-5.5c0.4-0.8,1.4-1.1,2-1.5c0.8-0.6,1.5-1,2.4-1.9
    c0.5-0.4,1.3-1.1,0.9-1.6c-0.4-0.5-0.9-0.5-1.6-0.4c-0.5,0.1-1.3,1-1.6,0.5c-0.6-1.2-0.9-2-1.6-2.8c-0.7-0.8-1.5-1.4-2.5-1.9V4.4
    c2.1,0,4,0.3,6.2,0.1c0.5,0,0.9-0.7,1.4-0.6c0.6,0.1,0.8,0.8,1.4,1c1,0.2,2.1-0.2,3.1,0C132.3,5.1,133.1,5.4,133.9,5.8L133.9,5.8z
     M119.3,65.2c0.3-0.2,0.5-0.4,0.6-0.6c0.3-0.6,0.3-1.3,0.4-2c0.3-1.3,0.7-1.9,1.1-3.2c0.1-0.3,0.5-0.5,0.5-0.8
    c0.1-2.9,0.1-6.1,0.1-9c0-2-0.1-4-0.2-6c0-0.5-0.4-1.6-0.5-2.3c-0.2-1.2-0.3-2.4-0.3-3.6c0-1.4,0.2-2.7,0-4c-0.1-0.8-1-1.7-1.2-2.5
    c-0.2-0.7,0.4-1.4,0.2-2.1c-0.1-0.4-0.6-0.3-0.7-0.7l-0.1-0.3V65.2z M119.3,4.4v1.7C119.2,6,119,6,118.9,5.9
    c-0.6-0.3-1.5-0.1-2.1-0.5c-0.4-0.3-0.5-0.8-0.1-0.8C117.6,4.5,118.5,4.4,119.3,4.4L119.3,4.4z M119.3,28.1
    c-0.3-0.8-0.6-1.5-0.8-2.4c-0.3-1.3-0.3-2.6-0.7-3.8c-0.4-1.4-1.1-2.7-1.5-4.1c-0.4-1.1-0.6-2.2-0.8-3.4c-0.2-0.8,0.1-2-0.2-2.8
    c-0.6-1.5-1.7-2.4-2.3-3.9c-0.4-0.9-0.1-1.9-0.4-2.8c-0.2-0.4-0.7-0.8-1.2-0.8c-0.6,0-1.3,0.3-1.6,0.9c-0.4,0.8,0.3,1.9-0.1,2.7
    c-0.5,1-1.7,1-2.1,2c-0.3,0.7,0.2,1.9,0,2.6c-0.1,0.4-0.3,0.8-0.5,1.1v20.3l0,0c0.1-0.4,1,0,1.2-0.3c0.1-0.1,0.2-0.7,0.4-1.2
    c0.1-0.3,0.4-0.6,0.4-0.7c0-0.2,0-1.3,0.1-2.4c0.1-0.6,0.2-1.1,0.3-1.1c0.1,0,0.2,0.5,0.5,0.9c0.4,0.5,0.5,0.9,0.8,1.4
    c0.2,0.3,0.4,0.6,0.7,0.8c0.4,0.2,0.9-0.1,1.2,0.1c0.3,0.1,0.4,0.6,0.6,0.8c0.2,0.1,0.6-0.1,0.6,0.1c0.2,1,0,2.4,0.2,3.4
    c0,0.2,0.6,0.1,0.6,0.4c0.1,1.8,0.1,3.5,0.1,5.3c0,1.6,0,3.1-0.1,4.7c0,0.4-1.2,0.5-1.5,0.2c-0.6-0.5-1-1-1.9-1.2
    c-0.3-0.1-0.3-0.6-0.7-0.7c-0.7-0.2-1.7-0.3-2.4-0.3c-0.4,0-0.8,0.1-1.2,0.1v5.2c1.9,0.9,3.9,2,5.3,3.1c0.8,0.7,1.1,1.1,1.1,2.2
    c0,0.7-0.2,1.6-0.5,2.3c-0.4,1-0.8,2.4-1.5,3.3c-0.9,1.3-1.9,2.3-2,3.8c-0.1,1.6,2.3,2.2,3,3.6c0.4,0.8,0,2.4,0.2,3.2
    c0.5,1.8,1.2,2.9,1.5,4.7c0.2,1.5-0.2,2.6,0,4.2c0.1,0.4,0.9,0.2,1.3,0c0.5-0.2,0.6-0.1,0.7-0.6c0.3-0.9-0.1-1.9,0.1-2.8
    c0.1-0.4,0.6-0.5,0.7-0.9c0.2-0.7-0.1-1.4,0.1-2.1c0.2-0.6,0.6-1.6,0.9-2.2c0.4-0.9,0.8-1.4,0.8-2.4c0.1-1.1-0.3-2,0-2.9
    c0.1-0.2,0.3-0.3,0.5-0.5V28.1L119.3,28.1z M107,72v-7.2c0.1,0.1,0.2,0.3,0.2,0.4c0.2,2.1,0.2,4.2,0,6.3
    C107.2,71.6,107.1,71.8,107,72L107,72z M107,62.5v-2.3c0.2,0.2,0.2,0.7,0.3,1.1c0.1,0.4,0.3,0.8,0.1,1.2
    C107.3,62.5,107.2,62.5,107,62.5L107,62.5z M107,56.6v-2c0.4,0.3,0.6,0.6,0.5,1C107.4,56.1,107.3,56.4,107,56.6L107,56.6z M107,37.3
    v-2.4c0.1,0.6,0.3,1.2,0.2,1.8C107.2,36.9,107.1,37.1,107,37.3z M107,13.5v20.3c-0.1,0.3-0.1,0.7,0,1.1v2.4c-0.2,0.3-0.4,0.6-0.4,1
    c-0.1,0.9-0.1,1.7-0.1,2.6c0,1,0,1.9,0,2.9c0,0.1-0.1,0.3,0,0.3c0.1,0,0.3,0,0.5,0v5.2l-1.2-0.6c-0.3-0.1-0.7,0.4-0.7,0.8
    c0,0.3,0.4,0.6,0.4,0.9c0.1,1-0.5,2-0.1,2.9c0.3,0.5,1,0.9,1.5,1.2v2c-0.1,0.1-0.2,0.2-0.4,0.3c-0.4,0.2-0.7,0.2-1.2,0.2
    c-1.2,0.1-2.5-0.4-3.7-0.1c-0.2,0.1-0.5,0.1-0.7,0.2V32.4c0-0.1,0.1-0.2,0.1-0.3c0.3-0.9-0.3-1.9,0-2.8c0.2-0.6,1.2-0.7,1.3-1.3
    c0.4-1.4,0-3.2,0.4-4.7c0.2-0.8,0.6-1.6,1.1-2.1c0.3-0.3,0.6-0.5,0.7-0.9c0.2-0.6-0.3-1.1-0.2-1.8c0.1-0.6,0.5-0.9,0.8-1.4
    c0.3-0.6,0.5-1.4,0.8-2.1C106.4,14.5,106.7,14,107,13.5L107,13.5z M107,60.2v2.3c-0.1,0-0.3,0-0.3,0.1c-0.2,0.5-0.1,1,0,1.5
    c0.1,0.2,0.2,0.4,0.3,0.6V72c-0.1,0.2-0.3,0.4-0.6,0.4c-1.9-0.1-3.6,0-5.4,0V61.2c0.3-0.2,0.5-0.3,0.8-0.5c0.4-0.3,0.5-1.1,1-1.3
    c0.3-0.1,0.4,0.7,0.7,0.7c1.1,0.2,2.1-0.3,3.3,0C106.9,60.1,107,60.1,107,60.2L107,60.2z M101,15.3c0.3-0.6,1.4-0.7,1.6-1.3
    c0.4-1,0-2.2,0.4-3.2c0.2-0.6,0.9-1,1.2-1.5c0.5-1.1,1.3-2.2,1.3-3.4c0-0.6-0.8-0.8-1.4-0.8c-1,0-2,0-3,0V15.3z M101,5v10.3l0,0
    c-0.3,0.9,0.2,1.9-0.1,2.8c-0.2,0.4-1.1,0.2-1.2,0.6c-0.5,1.5-0.2,3.1-0.6,4.6c-0.2,0.8-0.8,1.4-1,2.3c-0.3,2.3,0.2,4.7,0,7
    c0,0.5-0.6,0.8-0.7,1.3c-0.3,1.1-0.6,2.4-0.9,3.5c-0.2,0.5-0.8,0.7-0.9,1.2c-0.2,0.7,0.3,1.6,0,2.3c-0.4,0.9-1.6,1.2-1.8,2.2
    c-0.6,2.6,0.3,5.4-0.1,8c-0.2,1.2-1.2,2.1-1.4,3.3c-0.3,1.5,0.2,3.3-0.2,4.8c-0.4,1.4-1.4,2.7-1.9,4.1c-0.1,1.4-1.8,2.6-0.9,3.6
    c1.1,0.1,2.9,0.4,4.1-0.2c0.6-0.3-0.1-1.5,0.4-1.8c1.5-1.2,3.3-1.6,5-2.5c0.7-0.4,1.6-0.7,2.3-1.1v11.2c-1.1,0-2.1,0.1-3.2,0.1
    c-0.3,0-0.1-0.6-0.4-0.7c-0.8-0.3-2.1-0.4-3-0.2c-0.9,0.2-1,1-2,1.2c-1.7,0.3-3.7,0-5.4,0.3c-0.6,0.1-1.1,0.6-1.7,0.8
    c-0.8,0.2-2.1,0.4-2.6-0.3c-0.3-1.7-0.1-3,0-4.3c0-0.3,0.7,0,0.8-0.3c0.2-0.4,0.5-0.9,0.3-1.3c-0.1-0.3-0.3,0.1-0.4-0.1
    c-0.2-0.3-0.1-0.8,0.1-1.1c0.3-0.4,1-0.3,1.3-0.8c0.3-0.7-0.2-1.5,0-2.3c0.1-0.2,0.7,0.2,0.7,0c0.3-1.1-0.1-2.3,0.1-3.4
    c0-0.3,0.3-0.4,0.3-0.7c0.1-1.2,0.2-2.5,0-3.7c-0.1-0.8-0.7-1.3-0.8-2.1c-0.4-2.7-0.5-5.7-0.1-8.5c0.3-2.1,1.6-5.4,2.4-7.4
    c0.5-1.3,0.7-0.9,1.2-2.1c0.1-0.4,0.2-0.8,0.1-1.2c-0.2-0.5-0.7-0.9-0.7-1.4c0.1-0.6,0.9-0.6,1.1-1.2c0.3-0.8-0.3-1.8,0-2.6
    c0.3-0.9,1.5-1.5,1.7-2.5c0.3-0.9,0-2.4,0.2-3.3c0.5-1.8,1.1-3,2-4.7c0.5-1,1.4-1.8,1.8-2.9c0.4-1,0.4-2.3,0.5-3.2
    c-0.6-0.8-2.1,0.3-3.1,0c-0.5-0.2-0.5-1-1-1.2c-1-0.1-2-0.1-2.8,0.5c-1,0.7-1,1.6-1.4,2.8c-0.6,1.8-0.1,3.7-0.9,5.4
    c-0.3,0.7-1.5,0.9-2,1.3c-0.3,0.2-0.4,0.5-0.8,0.5c-0.4,0-0.7-0.1-0.8-0.5c-0.2-0.8,0-1.6,0-2.4c0-0.6-0.4-1.2-0.2-1.8
    c0.1-0.3,0.8-0.2,0.8-0.5c0.3-3.5-0.1-7-0.1-10.4c0-1.2,0.3-1,1.5-1c2,0,5.1,0,7.3,0C95.1,5.1,98.1,5,101,5L101,5z M101,32.4
    c-0.3,0.7-1.1,1.3-1.3,2.1c-0.4,1.4-0.4,3-0.1,4.4c0.1,0.5,0.9,0.2,1,0.7c0.1,0.4-0.9,0.2-1,0.6c-0.3,0.9,0.2,2-0.1,2.9
    c-0.2,0.7-0.7,0.6-0.8,1.3c-0.1,0.6,0.1,1.6,0.2,2.1c0.1,1.1-0.2,1.9-0.2,3c0,0.5,0.4,1.2,0.1,1.6c-0.4,0.7-1.6,0.7-2,1.3
    c-0.4,0.6,0.1,1.8-0.2,2.5c-0.5,0.9-1.8,0.9-1.9,1.9c-0.1,1,0,2.6,1,2.7c0.9,0,1.7-0.5,2.5-0.9c1-0.5,1.9-1,3-1.3V32.4L101,32.4z
     M70.3,78.2v-9.3c2.9,0,6.2-0.1,8.2,0.1c1.4,0-0.1,4.9,0.4,7.5c0.1,0.6,0.6,0.9,0.9,1.4c0.5,0.8,0.6,1.2-0.6,1.2
    c-2.2,0-4.5,0.2-6.9,0.1c-0.5,0-0.5-0.9-0.9-1.1C71,78,70.6,78.1,70.3,78.2L70.3,78.2z M70.3,64.9v-5.1c0.4-0.1,0.7-0.3,1-0.5
    c1.1-0.9,1-2,1.9-3c0.8-0.9,2.5-1.4,3.2-2.3c0.5-0.5-0.2-1.4,0.4-1.8c0.6-0.5,1.6,0.3,2.2,0c0.1-0.1,0.1-0.2,0.1-0.3
    c-0.1-0.3-0.2-0.6-0.1-0.8c0.1-0.2,0.6,0.2,0.7,0c0.3-0.4-0.1-1.4,0.3-1.7c0.3-0.2,1.4,0,1.7,0.3c0.3,1,0.3,2.2,0.2,3.2
    c0,0.3-0.4,0.3-0.4,0.6c-0.2,0.9-1.1,1.4-1.1,2.3c-0.3,2.8,0.3,5.9,0,8.7c-0.1,0.5-1.2,0-1.6,0.3c-0.4,0.3,0.1,1-0.4,1
    c-2.4,0.2-4.6-0.1-7.1,0c-0.3,0,0.1-0.8-0.2-0.9C70.8,64.9,70.5,64.8,70.3,64.9L70.3,64.9z M70.3,44.3V26.6c0.4-0.4,0.9-0.7,1.2-1.1
    c0.7-0.9,1.5-2,1.8-3c0.3-1-0.6-2.2,0-3.1c0.5-0.7,1.2-1.4,1.8-2.1c1-1.1,1.9-2.2,2.3-3.3c0.3-0.7,0.1-2.2,0-3.3
    c0-0.2-0.1-0.6-0.3-0.6c-2.4,0.1-4.5-0.1-6.3,0.1c-0.2,0-0.4,0.1-0.6,0.2V5.7c3.1,0,6.2-0.1,9.3,0c0.2,0,0.1,0.2,0.1,0.4
    c0.1,1-0.1,2.1-0.1,3.2c0,0.3,0.7,0.3,0.7,0.6c0.2,3.8,0,7.6-0.1,11.4c0,0.3-0.5,0.5-0.5,0.8c-0.1,1.2,0.2,1.7-0.2,2.8
    c-0.2,0.8-1.1,1.9-1.5,2.6c-0.5,0.9-0.5,1.8-0.9,2.7c-0.3,0.7-0.9,1.2-1.1,2c-0.3,1.1,0.1,2.3-0.3,3.4c-0.2,0.5-0.9,0.1-1.3,0.4
    c-0.6,0.4-1.4,1.1-1.6,1.8c-0.3,1,0.3,2.1,0,3c-0.1,0.4-0.9,0.2-1.1,0.5C71.3,42.3,70.7,43.3,70.3,44.3z M52.2,65.6
    c1.2-0.1,2.6-0.2,3.1,0.2c0.9,0.7,0.9,0.1,1.4,0.1c0.4,0,1.7,0.2,1.7,0.2c1.1-0.1,0.9-1.9,0.1-2.4c-1.2-0.9-2.7-1.5-3.8-2.4
    c-0.1-0.9-0.2-1.7-0.3-2.6c0.3-0.5,0.6-0.9,0.9-1.4c0-1.4,0-2.9,0-4.3c-0.2-0.4-0.3-0.8-0.5-1.2c-0.1-1.1-0.1-2.2-0.2-3.3
    c-0.1-0.2-0.3-0.4-0.4-0.6c0-0.4,0-0.8,0-1.3c0.3-0.4,0.9-0.8,1.2-1.3c0.1-0.8-0.3-1.4-0.2-2.2c-0.2-1-0.2-2.3-0.4-3.3
    c0-1.3,0-2.5,0-3.8c0.8-0.2,1-0.6,1.1-1c0.1-0.5-0.2-1-0.4-2.2c-0.1-6-0.2-12.3-0.3-18.3c0.5-0.7,1-1.1,1-1.6c0-0.4-0.4-0.8-1-1.2
    c0-0.4,0-0.8,0-1.3c0,0,0.9-1.9,1.7-1.9c0.8,0,1.3-0.6,1.3-1.2c0.7-1.4-0.8-1.5-0.8-1.5c-1.6,0-3.5,0-5,0V65.6L52.2,65.6z M70.3,5.7
    v4.6c-0.5,0.2-0.9,0.7-1.4,1.1c-0.6,0.6-1.2,1.3-1.5,2.1c-0.2,0.6,0.1,1.1-0.2,1.6c-0.3,0.3-0.9-0.2-1.3,0c-0.4,0.3-0.7,0.8-0.8,1.3
    c-0.3,1.7,0.2,3.6-0.1,5.3c0,0.3-0.6,0.3-0.7,0.6c-0.2,0.4,0.4,1.2,0,1.3c-0.3,0.1-0.9,0-1.1,0c-0.5,0-0.1-1.1-0.2-1.6
    c-0.1-0.4-0.5-0.8-0.6-1.2c-0.2-1.1-0.4-1.9-0.5-3.1c0-0.3,0.4-0.8,0.4-1.1c0.1-1,0.1-2.1-0.3-3.1c-0.1-0.4-0.9-0.1-0.9-0.5
    c0-2,0.1-3.9,0-5.5c0-0.4,0.1-1,0.4-1.2c0.3-0.3,0.6-0.4,1-0.4C65,5.6,67.6,5.8,70.3,5.7L70.3,5.7L70.3,5.7z M70.3,26.6v17.7
    c-0.5,1-0.9,2.1-1.2,3.1c-0.7,1.9-1,3.1-1.6,4.9c-1,2.9-2.2,5.9-3.1,8.9c-0.1,0.4,0.3,1,0.7,0.9c1.2-0.3,1.8-1.2,3-1.7
    c0.7-0.3,1.5-0.4,2.3-0.7v5.1c-0.3,0-0.7,0.1-1,0.3c-0.4,0.2-0.3,1-0.7,1.2c-0.5,0-1.2,0-1.6,0c-0.5-0.2-0.5-1.2-1.1-1.3
    c-1.4-0.3-3.4,0.3-4.8,0.1c-0.5-0.1-0.5-0.8-0.6-1.3c-0.1-0.4,0.7-0.4,0.8-0.7c0.3-1.5-0.1-2.5,0.2-3.9c0.1-0.4,0.6-0.3,0.8-0.6
    c0.2-0.4,0.2-0.9,0-1.3c-0.2-0.3-0.8-0.2-1.1-0.5c-0.3-0.3-0.5-0.7-0.4-1.2c0.1-0.4,0.9-0.5,1-0.9c0.1-0.3-0.2-0.6-0.4-0.9
    c-0.2-0.3-0.6-0.6-0.6-1c0-1.3,0.2-2.6,0.5-3.8c0.2-1,0.4-2,0.6-3c0.2-1.1,0.3-2.2,0.8-3.2c0.4-0.9,1.4-1.7,1.9-2.6
    c0.4-0.8,0.5-1.3,0.7-2.1c0.2-0.7,0.5-1.4,1-2c0.4-0.4,0.9-0.3,1.1-0.8c0.3-0.7,0-1.5,0.1-2.2c0.2-0.9,0.4-1.8,0.7-2.7
    c0.4-1.1,0.8-2,1.4-2.9C69.8,27.1,70,26.8,70.3,26.6L70.3,26.6z M70.3,68.9v9.3c-0.2,0-0.3,0-0.5,0c-0.8-0.2-1.6-0.9-2.4-1
    c-2.1-0.2-4.2,0.3-6.3,0c-0.5-0.1-0.5-1-1-1c-2.7-0.2-5.3-0.1-7.9-0.1v-5.9c0.1,0,0.3,0.1,0.4,0.1c1.3,0.2,2.8,0.3,4.1-0.1
    c0.8-0.2,1.2-1,2-1.1c3.4-0.5,6.6-0.2,10-0.2C69.2,68.9,69.7,68.9,70.3,68.9z M46.6,66.3c0,0,0.3,1.5,1.2,1c0.9-0.6,1.2-1.4,2.1-1.4
    c0.4,0,1.3-0.1,2.3-0.2V6.1l-0.1,0c-1.4,0-2.6-0.2-3.9-0.2C47.6,5.9,47,6,46.4,6c-1.5,0.5-1.2,1.3-0.6,1.7c0.7,0.4,1.3,0.9,2.1,0.9
    c1,0,1.7,0.3,2.1,1.3c0.1,3.9,0.2,7.7,0.3,11.6c0,2.8,0.1,5.7,0.1,8.5c0,2.8,0,5.7,0,8.5c0.1,3.3,0.1,6.7,0.2,10
    c0,0-0.2,1.3-0.4,1.5c-0.3,0.3-0.2,2.8-0.2,2.8c1,0.8,0.8,0.7,0.1,1.8c-0.1,2.5-0.1,5-0.2,7.4c-0.2,0.5-0.5,0.9-0.7,1.4
    C49.1,63.6,46.6,65.1,46.6,66.3L46.6,66.3z M52.2,70.2v5.9c-2.1,0-4.3,0.1-6.4,0c-1-0.1-1.1-0.4-1.8-0.6c-0.9-0.3-2.6-0.4-3.5,0
    c-1.6,0.8-1.6,2.2-3.3,2.8c-1.3,0.4-2.8,0-4.1,0c-0.4,0-1.1,0.3-1.5,0.2c0,0-0.1,0-0.2-0.1v-2c1.1-0.9,2.7-1.2,3.5-2.4
    c0.6-0.9,0-2.1,0.3-3.1c0.1-0.3,0.6-0.3,0.8-0.6c0.1-0.2,0.2-0.6,0-0.8c-0.4-0.5-0.6,0.5-0.8-0.9c-0.1-1.2-0.2-2.5-0.1-3.7
    c0.1-0.8,0.6-0.6,0.7-1c0.2-0.8-0.2-1.3,0-2.1c0.1-0.3,0.7-0.3,0.9-0.6c0.2-0.3,0.2-0.7,0-1c-0.4-0.6-1.4-0.6-1.5-1.2
    C34.9,58,35,56.6,35,55.4c0-1.3-0.1-2.6,0-4c0-0.2,0.6-0.2,0.7-0.5c0.2-0.5,0.1-1,0-1.5c-0.1-0.4,0.1-1.2,0-1.6c0-0.6-0.3-0.8,0-1.4
    c0.2-0.4,0.8-0.1,0.9-0.6c0.3-2.2-0.3-4.4-0.1-6.6c0-0.4,0.6-0.3,0.7-0.7c0.2-0.6,0.2-1.3-0.1-1.8c-0.1-0.3-0.7-0.3-0.7-0.5
    c-0.3-3.2,0.2-6.2-0.1-9.5c0-0.3-0.8,0.1-0.8-1.2c0-1.4-0.1-2.6-0.1-3.6c0-0.8,1.7-0.8,1.7-1.6c0-1.2,0.2-2.5-0.1-3.7
    c-0.1-0.4-0.6-0.3-0.8-0.7c-0.2-0.3,0-0.7,0.1-1c0.2-0.4,0.6-0.7,0.8-1.1c0.2-0.8,0.2-1.7,0-2.5c-0.1-0.3-0.5-0.5-0.6-0.8
    c-0.2-0.4-0.1-0.8-0.4-1.2c-0.2-0.3-0.9-0.1-1.1-0.3C34.3,8.6,34,8,33.4,7.4c-0.5-0.5-1.2-0.9-1.7-1.6c-0.3-0.5,0-1.3,0.5-1.6
    c0.3-0.2,0.8-0.2,1.2,0C33.7,4.4,33.7,5,34,5.1c1.4,0.2,2.9-0.4,4.3-0.1C39,5.1,39,5.9,39.6,6.1C40,6.3,40.7,6,41,6.2
    c0.5,0.4,1,1.1,1.4,1.5c0.5,0.5,1,0.8,1.2,1.5c0.3,1,0.2,1.9,0.2,2.9c0,0.9,0.1,1.8,0,2.7c0,0.3-0.6,0.2-0.7,0.4
    c-0.1,0.5,0,1.1,0.2,1.5c0.2,0.3,0.7,0.2,0.8,0.5c0.3,0.9,0.3,1.9,0.1,2.8c-0.1,0.3-0.7,0.1-0.7,0.4c-0.3,4.2-0.3,8.5,0.1,12.7
    c0.1,0.7,1.2,1,1.3,1.7c0.4,4,0,8-0.1,12c0,0.6-0.3,1.3-0.5,1.7c-0.3,0.5-0.1,0.9-0.1,1.5c0,0.7-0.1,1.4,0,2.1
    c0.1,0.4,0.9,0.8,0.8,1.2c-0.1,1.1,0.1,1.6,0.1,2.7c0,0.5-0.9,0.8-1.2,1.3c-0.2,0.3-0.3,0.9-0.2,1.2c0.2,0.3,0.5,0.2,0.6,0.5
    c0.1,0.5,0.1,0.9-0.1,1.3c-0.2,0.3-0.7,0.2-0.8,0.6c-0.2,0.9,0.4,1.8,0.2,2.7c0,0.3-0.6,0.2-0.7,0.4c-0.2,1.3,0.2,2.7,0,4
    c-0.1,0.5-0.9,0.7-0.9,1.2c0,0.3,0.7,0.1,0.8,0.3c0.2,0.4-0.3,1.2,0.1,1.3c1.4,0.4,3.2,0.3,4.7-0.1c0.8-0.2,1.2-1.4,2-1.4
    C50.7,69.5,51.4,70,52.2,70.2L52.2,70.2z M31.3,56.7c0.3-0.4,0.7-0.7,0.8-1.2c0-1.8,0-3.7-0.1-5.6c0-1.8,0-3.6-0.1-5.2
    c-0.1-0.3-0.3-0.5-0.6-0.7V56.7L31.3,56.7z M31.3,19.9c0.1-0.5,0.2-1.1,0.2-1.6c0-0.9-0.1-2-0.2-3.1V19.9z M31.3,15.2v4.7
    c-0.2,0.7-0.5,1.4-0.8,2.1c-0.8,1.6-1.8,3.1-2.9,4.7c-0.6,0.9-1.7,1.8-2,2.8c-0.3,1.1,2.5,0.3,3.1,1.2c0.5,0.9-0.5,2-0.2,3
    c0.3,0.9,1.8,1,2,1.9c0.5,2.4-0.6,5-0.2,7.4c0.1,0.4,0.5,0.6,0.9,0.9v12.7c-0.1,0.2-0.2,0.4-0.3,0.6c-0.2,1.8,0.4,3.8,0,5.6
    c-0.4,1.9-1.9,3.2-2.5,5c-0.5,1.6-0.4,3.9-1.2,4.8c-1.3,0.4-3,1.4-4.1,2.2c-1.6,1.2-2.5,2.5-3,2.5c-0.2,0.2-0.6,0.3-1,0.3v-8.6
    c0.6-0.5,1.2-1,1.7-1.5c1.1-1.1,1.3-1.2,1.4-2.8c0.1-1,0.2-2.1,0.2-3.1c0.3-1.4,0.7-2.8,1-4.1c0.3-1.2,0.3-1.9,0-3.1
    c-0.4-1.4-0.8-1.8-0.8-2.6c0-0.6,0.4-1.2,0.9-2.3c0.3-0.7,0.1-0.6-0.3-1.2c-0.5-0.6-0.7-1.1-0.8-1.5c-0.1-0.8,0.3-1.6,0.6-2.8
    c0.4-1.7-0.9-2.1-0.4-3.8c0.5-1.8-0.6-1.9-1.8-3l-1.7-1.6v-9.2c0.1-0.2,0.2-0.4,0.3-0.6c0.5-1,1.2-2.2,1.9-2.3
    c1-0.2,1.6-0.3,1.6-0.3s0.5-0.1,0.4-1.4c-0.2-1.3-0.6-2.6-0.2-3c0.3-0.4,0.4-1.4,0-1.8c-0.4-0.4-0.7-0.8-0.1-1.4
    c0.6-0.6,1-1.5-0.4-1.4c-1.4,0.2-1.4-0.4-1.5-0.9c-0.1-0.3-1.1-0.3-1.9-0.3V5.1c1.6,0,3.2,0,4.8,0.2c0.8,0.1,1,1.4,1.7,1.7
    c0.9,0.5,2.3,0.4,3.1,1.1c1.2,1.2,2,2.3,2.1,4C31.1,13.1,31.2,14.2,31.3,15.2L31.3,15.2z M31.3,76.5c-0.3,0.2-0.5,0.4-0.7,0.7
    c-0.2,0.3,0.3,1,0.7,1.3V76.5z M19.3,5.1v7.8c-0.2,0-0.4,0-0.6,0c-0.8,0.2-1.5,0.1-1.4,0.9c0,0.8-0.1,4.8-0.1,5.2
    c0,0.4,0.1,7.8,0.1,7.8c0.9,0,1.2,0.1,1.5,0c0.2-0.1,0.3-0.2,0.5-0.6v9.2l-0.2-0.2c-0.8-0.8-1.3-1.4-1.5-1.5
    c-0.2-0.1-0.3,0.4-0.3,1.7c0,1.4-0.2,2.5-0.2,4C17,40,16.8,40.5,16.7,41c0.1,0.9,0.2,1.9,0.3,2.8c0,1.1-0.3,2-0.3,3.1
    c-1,1.1-1.5,1.1-0.3,2.1c0,1.2,0.2,2.3,0.2,3.5c0,2.5,0,5.1,0,7.6c-0.3,0.5-0.7,0.9-1,1.4c0.1,2.5,0.2,5,0.3,7.6
    c-0.4,0.8-0.8,1.5-1.2,2.3c1.1-0.4,1.9-0.4,3-0.9c0.5-0.5,1-0.9,1.6-1.4v8.6c-0.6,0-1.2,0-1.6,0.1c-0.7,0.3-0.8,0.8-1.5,0.7
    c-0.6-0.1-0.4-0.6-0.8-0.9c-0.3-0.2-0.8-0.2-1,0c-1.5,1.2-0.4,0.9-2.1,0.7c-1.8-0.2-5.2,0.4-7.3-0.1c-1.3-0.3-1.5-0.9-1.1-1.2
    c0.3-0.2,1-0.2,1.3-0.4c0.5-0.2,1-0.5,1.3-0.9c0.5-0.6,0.2-2,0.8-3.2c0.6-4.9,0.7-11.3,0.2-13.5c-0.3-3.3,0-14.4,0-15.8
    c0.4-0.7,0.5-0.7,0.5-1.9c0-0.5,0.3-1.2,0-1.8c-0.5-0.5-0.3-2.7-0.4-3.9C7.4,34,7.5,34,8,32.4c0.2-0.6,0.3-1.3,0-1.9
    c-0.4-1-1,0.1-1-1.8c0.1-4.6,0.3-9.3,0.1-13.9c0-0.4,0.7-0.5,0.8-0.9c0.2-0.5,0.2-1.1,0-1.6C8,12.1,7.2,12.4,7,12.2
    c-1.3-1.2-2.9-2-3.7-3.7C3.1,7.9,3.5,6.5,4.1,6.2c1-0.5,2.9,0,4-0.2c0.6-0.1,1-0.5,1.6-0.5C12.9,5.4,16.1,5.1,19.3,5.1z"/>
<path class="st0" d="M170.6,5h-0.2v0.8h0.2c0.2,0,0.3,0,0.4-0.1c0.1-0.1,0.1-0.2,0.1-0.3c0-0.1,0-0.2-0.1-0.3
    C170.9,5,170.7,5,170.6,5L170.6,5z M170.7,4.3c0.5,0,0.8,0.1,1.1,0.2c0.2,0.2,0.4,0.4,0.4,0.7c0,0.2-0.1,0.4-0.2,0.5
    c-0.1,0.2-0.3,0.3-0.5,0.3l0.7,1.4h-1.1l-0.6-1.3h-0.1v1.3h-1V4.3H170.7L170.7,4.3z M173.1,6c0,0.3-0.1,0.6-0.2,0.9
    c-0.1,0.3-0.3,0.5-0.5,0.8c-0.2,0.2-0.5,0.4-0.8,0.5c-0.3,0.1-0.6,0.2-0.9,0.2c-0.3,0-0.6-0.1-0.9-0.2c-0.3-0.1-0.5-0.3-0.8-0.5
    c-0.2-0.2-0.4-0.5-0.5-0.8c-0.1-0.3-0.2-0.6-0.2-0.9c0-0.3,0.1-0.6,0.2-0.9c0.1-0.3,0.3-0.6,0.5-0.8c0.2-0.2,0.5-0.4,0.8-0.5
    c0.3-0.1,0.6-0.2,0.9-0.2c0.3,0,0.6,0.1,0.9,0.2c0.3,0.1,0.5,0.3,0.8,0.5c0.2,0.2,0.4,0.5,0.5,0.8C173,5.4,173.1,5.7,173.1,6
    L173.1,6z M170.7,3c0.4,0,0.8,0.1,1.2,0.2c0.4,0.1,0.7,0.4,1,0.7c0.3,0.3,0.5,0.6,0.6,1c0.2,0.4,0.2,0.8,0.2,1.2
    c0,0.4-0.1,0.8-0.2,1.2c-0.1,0.4-0.4,0.7-0.6,1c-0.3,0.3-0.6,0.5-1,0.7c-0.4,0.2-0.8,0.2-1.2,0.2c-0.4,0-0.8-0.1-1.1-0.2
    c-0.4-0.2-0.7-0.4-1-0.7c-0.3-0.3-0.5-0.6-0.7-1c-0.2-0.4-0.2-0.7-0.2-1.1c0-0.4,0.1-0.8,0.2-1.2c0.2-0.4,0.4-0.7,0.7-1
    c0.3-0.3,0.6-0.5,1-0.6C169.9,3.1,170.3,3,170.7,3z"/>
</svg>
