<?xml version="1.0" encoding="utf-8"?>
<!-- Generator: Adobe Illustrator 21.0.0, SVG Export Plug-In . SVG Version: 6.00 Build 0)  -->
<svg version="1.1" id="Слой_1" xmlns="http://www.w3.org/2000/svg" xmlns:xlink="http://www.w3.org/1999/xlink" x="0px" y="0px"
     viewBox="0 0 300 300" style="enable-background:new 0 0 300 300;" xml:space="preserve">
<style type="text/css">
    .st0{fill:#A9A9A9;}
</style>
<path class="st0" d="M149.5,101.9c-18.4,0-36.8,0-56.1,0c-15.6,0-28.5-12.9-28.5-28.7c0-18.5,0-36.1,0-54.6C64.8,9.4,72.2,2,80.5,2
    c2.8,0-0.9,0,1.8,0c12,0,11,12,11,14.8c0,6.5,0,2.8,0,9.2c0,2.8,0.9,3.7,3.7,3.7c6.4,0,13.8,0,20.2,0c1.8,0,3.7-1.9,3.7-3.7
    c0-3.7,0-7.4,0-11.1c0-7.4,6.4-13,12.9-13c12.9,0,18.4,0,31.3,0c10.1,0,12.9,11.1,12,13.9c0,6.5,0,3.7,0,10.2c0,2.8,0.9,4.6,4.6,4.6
    c6.4,0,12.9,0,19.3,0c3.7,0,4.6-0.9,4.6-4.6c0-6.5,0-6.5,0-12.9c0-2.8,0.9-11.1,12-11.1c3.7,0-0.9,0,3.7,0c7.4,0,12.9,6.5,12.9,13.9
    c0,19.4,0,39.8,0,59.2c0,13.9-12.9,25.9-26.7,25.9C188.1,101.9,168.8,101.9,149.5,101.9z"/>
<path class="st0" d="M261.7,255.5c0-9.2-5.5-14.8-14.7-14.8c-4.6,0-15.6-0.9-19.3-5.6c-12-14.8-16.6-29.6-19.3-48.1
    c-3.7-22.2-2.8-35.1-3.7-57.4c0-5.6,0-5.6-5.5-5.6c-34,0-67.1,0-101.2,0c-6.4,0-6.4,0-6.4,6.5c0,22.2,0,34.2-3.7,56.4
    c-2.8,17.6-7.4,35.1-20.2,49c-2.8,2.8-12.9,4.6-18.4,4.6c-9.2,0-14.7,5.6-14.7,14.8c0,8.3,0,16.6,0,25.9c0,11.1,5.5,16.6,16.6,16.6
    c32.2,0,64.4,0,95.6,0c32.2,0,64.4,0,96.6,0c10.1,0,15.6-5.6,15.6-15.7C261.7,273,262.6,264.7,261.7,255.5z"/>
</svg>
