<?xml version="1.0" encoding="utf-8"?>
<!-- Generator: Adobe Illustrator 21.0.0, SVG Export Plug-In . SVG Version: 6.00 Build 0)  -->
<svg version="1.1" id="Слой_1" xmlns="http://www.w3.org/2000/svg" xmlns:xlink="http://www.w3.org/1999/xlink" x="0px" y="0px"
	 viewBox="0 0 447 384" style="enable-background:new 0 0 447 384;" xml:space="preserve">
<style type="text/css">
	.st0{fill:#FF9C00;}
	.st1{fill:#FFFFFF;}
	.st2{fill:#3F3F49;}
	.st3{fill:url(#SVGID_1_);}
	.st4{fill:#FFFFFF;stroke:#3F3F49;stroke-miterlimit:10;}
	.st5{fill:#FAFAFA;}
	.st6{fill:#48443E;}
</style>
<g>
	<path class="st0" d="M234.1,366.6c72.5-50.2,146.7-117.3,146.7-233.1V17.9l-28.7,9.2c-10.8,3.4-22.5,5.2-34.7,5.2
		c-40.9,0-51.9-26.5-51.9-26.5L177.4,6c0,0-11,26.2-51.9,26.2c-12.2,0-23.9-1.7-34.7-5.2l-28.7-9.2v115.5
		c0,101.6,76.2,187.2,147.5,233.5"/>
	<g>
		<path class="st0" d="M236.6,370.9c54.8-38,106.5-83.7,132.1-146.9c12-29.5,17-61.1,17-92.8c0-19.3,0-38.7,0-58
			c0-18.4,0-36.9,0-55.3c0-3.1-3.2-5.8-6.3-4.8c-13,4.1-26.1,9.2-39.5,12c-21.3,4.4-47.6,3.8-63.8-12.8c-2.6-2.7-4.9-5.5-6.4-9
			c-0.7-1.6-2.7-2.5-4.3-2.5c-25.7,0.1-51.3,0.2-77,0.2c-3.7,0-7.4,0-11.1,0c-1.6,0-3.7,0.9-4.3,2.5c-4,9.5-14.2,16.5-23.8,19.9
			c-21.5,7.7-44.5,2.8-65.5-3.9c-6.8-2.2-13.5-4.3-20.3-6.5c-3.1-1-6.3,1.7-6.3,4.8c0,35.5,0,70.9,0,106.4c0,25,2.5,49.4,9.9,73.4
			c10.9,35.1,29.7,67.2,52.8,95.6c24.7,30.3,54.5,56.6,87.2,77.9c5.4,3.5,10.4-5.1,5-8.6c-57.9-37.7-109.3-92.8-132.5-158.8
			C70.8,178.9,67,153.5,67,127.3c0-19.9,0-39.8,0-59.7c0-16.6,0-33.2,0-49.8c-2.1,1.6-4.2,3.2-6.3,4.8c14.9,4.8,30,10.7,45.5,13
			c23.2,3.5,49.8,1.5,67.2-16c3.2-3.2,6.4-7,8.2-11.2c-1.4,0.8-2.9,1.7-4.3,2.5c25.7-0.1,51.3-0.2,77-0.2c3.7,0,7.4,0,11.1,0
			c-1.4-0.8-2.9-1.7-4.3-2.5c4.8,11.2,16.6,19.5,27.4,23.8c22.8,9.2,48.5,5,71.2-2.2c7.5-2.4,14.9-4.8,22.4-7.1
			c-2.1-1.6-4.2-3.2-6.3-4.8c0,36,0,72,0,108c0,27-2.6,53.4-10.8,79.3c-10.2,32.1-28.1,61.1-50.3,86.2c-24.3,27.3-53.1,50-83,70.8
			C226.3,365.9,231.3,374.6,236.6,370.9L236.6,370.9z"/>
	</g>
</g>
<path class="st1" d="M211.9,362.2c-70-45.5-145.6-129.5-145.6-228.7V25.7l22.1,6.8c11.4,3.6,24,5.4,36.8,5.4
	c35.4,0,50.6-18.4,55.4-26.2l81.4-0.3c4.8,7.9,19.9,26.5,55.4,26.5c12.8,0,25.8-1.8,37.1-5.4l22.1-6.8v107.7
	c0,113.3-73.6,179-145,228.4"/>
<path class="st2" d="M215.2,357.4C146.3,312.6,72.5,230.3,72.5,133.5v-100L86.9,38c11.9,3.8,24.9,5.7,38.4,5.7
	c34.8,0,51.6-16.7,58.4-26.2l75.3-0.2c6.8,9.7,23.7,26.5,58.4,26.5c13.5,0,26.9-2,38.6-5.7l14.4-4.5v100
	c0,110.4-71.9,175.1-142.2,223.7"/>
<radialGradient id="SVGID_1_" cx="220.6" cy="196.39" r="157.3973" gradientTransform="matrix(1 0 0 -1 0 383.89)" gradientUnits="userSpaceOnUse">
	<stop  offset="0.4777" style="stop-color:#FFFFFF"/>
	<stop  offset="0.5" style="stop-color:#FBFBFB"/>
	<stop  offset="1" style="stop-color:#DBDBDB"/>
</radialGradient>
<path class="st3" d="M216.1,355C147.9,310.7,74,229.2,74,133.5V37.4l11.4,3.3c12.2,3.9,25.8,5.8,39.5,5.8c34.5,0,52.3-15.9,60-26.3
	l72.5-0.2c7.8,10.4,25.4,26.5,59.9,26.5c13.6,0,27.3-2,39.3-5.8l10.6-3.3v96.1c0,109.2-71.3,173.2-140.9,221.4"/>
<g>
	<polygon class="st0" points="219.7,43.3 223.3,53.8 234.5,54 225.6,60.7 228.9,71.4 219.7,65 210.6,71.4 213.9,60.7 205,54 
		216.1,53.8 	"/>
	<polygon class="st0" points="250.5,48.9 253.4,57.4 262.3,57.5 255.2,62.9 257.8,71.4 250.5,66.3 243.2,71.4 245.9,62.9 
		238.7,57.5 247.6,57.4 	"/>
	<polygon class="st0" points="279,52 281.4,59.3 289.1,59.4 283,64 285.2,71.4 279,67 272.7,71.4 274.9,64 268.8,59.4 276.5,59.3 	
		"/>
	<polygon class="st0" points="160.3,52 162.8,59.3 170.5,59.4 164.3,64 166.6,71.4 160.3,67 154,71.4 156.2,64 150.1,59.4 
		157.8,59.3 	"/>
	<polygon class="st0" points="188.4,48.9 191.3,57.4 200.2,57.5 193.1,62.9 195.7,71.4 188.4,66.3 181.1,71.4 183.8,62.9 
		176.6,57.5 185.5,57.4 	"/>
</g>
<path class="st4" d="M221.4,379.7c-20.1,0-36.5-16.4-36.5-36.5s16.3-36.5,36.5-36.5s36.5,16.4,36.5,36.5S241.6,379.7,221.4,379.7"/>
<path class="st0" d="M221.4,310.6L221.4,310.6L221.4,310.6c7.6,0,14.5,2.6,20.1,6.9l-5.8,7.1c-4-3.1-8.9-4.9-14.3-4.9
	c-5.4,0-10.4,1.8-14.3,4.9l-5.8-7.1C206.9,313.1,213.8,310.6,221.4,310.6L221.4,310.6z"/>
<polygon class="st2" points="370,166 72,166 90.6,85 351.4,85 "/>
<g>
	<path class="st5" d="M210.7,130.1h4.5l4.8-9.9l4.5,9.9h4.7c1.5-3,3.5-6.7,4.8-9.7l4.3-10.1h-6.6l-4.2,10.1l-4.7-10.1h-4.6l-4.7,9.9
		l-3.2-7.3c-0.5-1.2-0.6-1.5-1.1-2.5H202L210.7,130.1L210.7,130.1z M332.8,110.3h6.8v20.1h-6.8v-7.6h-12.7v7.6h-6.8v-20.1h6.8v7.1
		h12.7V110.3L332.8,110.3z M251.7,110.3h-5.3l-13.6,20h8l8.2-12.6l8.2,12.9h7.5L251.7,110.3L251.7,110.3z M259.7,115.5h9.1v14.8h6.8
		v-14.8h7c1.2-1.8,2.5-3.5,3.7-5.3h-26.6V115.5L259.7,115.5z M133.5,130.3h4.9l13.5-19.8h-8l-7.7,12.1l-8-12.1h-7.5L133.5,130.3
		L133.5,130.3z M151.5,115.3v15h21.1v-5.2h-14.5v-2.7h10.1v-4.2h-10.1v-2.7h14.5v-5h-17.8L151.5,115.3L151.5,115.3z M285.1,117.2
		v9.3c0,1.3,1.6,3.9,4.4,3.9h14.1c4.3,0,6.8-1.1,6.7-5.3v-2.3h-6.7v2.4h-11.6v-9.6h11.6v2.1h6.7v-2.5c0-2.2-1.6-4.9-5.6-4.9h-15.1
		C288.8,111.5,285.1,116.3,285.1,117.2L285.1,117.2z M175.8,130.3h7.2v-14.6h11v3.1h-7.7v3.9l8.3,7.5h9l-8.2-7.6
		c4.5,0.1,5.2-2.1,5.2-4.1v-4.2c0-2.8-2.1-4-4.9-4h-19.8L175.8,130.3L175.8,130.3z M94.3,115.8V126c0,1.7,1,2.9,2.7,4l4.5-4.9
		l0.1-9.3h12.6v9.3h-9.7l-4.5,5.1h16.8c1.3,0,4.4-1.7,4.4-4.4v-10.3c-1-1.5-2.5-3.9-3.5-5.2H99.7C96.2,110.5,94.3,112.4,94.3,115.8
		L94.3,115.8z"/>
	<polygon class="st0" points="131.2,110.1 142,110.1 136.6,102.6 	"/>
	<polygon class="st0" points="254.4,130.3 243.7,130.3 249.1,137.8 	"/>
</g>
<g>
	<path class="st6" d="M159.4,263.3v-15.4h3.1v15.4H159.4z"/>
	<path class="st6" d="M168,253.4v9.9h-3.1v-15.4h4.2l2.5,10v-10h3.1v15.4h-4.2L168,253.4z"/>
	<path class="st6" d="M179.1,250.7h-3v-2.9h9v2.9h-3v12.6h-3V250.7z"/>
	<path class="st6" d="M189.2,260.4h5.1v2.9h-8.1v-15.4h8.1v2.9h-5.1v3.4h4.2v2.9h-4.2V260.4z"/>
	<path class="st6" d="M198.9,257.8v5.5h-3.1v-15.4h6.7c0.6,0,1.1,0.2,1.6,0.6c0.4,0.4,0.7,0.9,0.7,1.5v4c0,1-0.4,1.8-1.2,2.4
		c0.8,0.6,1.2,1.4,1.2,2.4v4.5h-3.1v-4.5c0-0.3-0.1-0.5-0.3-0.7s-0.5-0.3-0.8-0.3H198.9z M200.7,254.9c0.3,0,0.5-0.1,0.8-0.3
		c0.2-0.2,0.3-0.4,0.3-0.7v-3.2h-2.9v4.2H200.7z"/>
	<path class="st6" d="M210.1,253.4v9.9H207v-15.4h4.2l2.5,10v-10h3.1v15.4h-4.2L210.1,253.4z"/>
	<path class="st6" d="M222.1,260.2l-0.6,3.1h-3.1l3-15.4h4.1l3,15.4h-3.1l-0.6-3.1H222.1z M222.7,257.3h1.5l-0.7-6.6L222.7,257.3z"
		/>
	<path class="st6" d="M231,250.7h-3v-2.9h9v2.9h-3v12.6h-3V250.7z"/>
	<path class="st6" d="M238,263.3v-15.4h3.1v15.4H238z"/>
	<path class="st6" d="M250.1,247.9c0.6,0,1.1,0.2,1.6,0.6c0.4,0.4,0.7,0.9,0.7,1.5v11.2c0,0.6-0.2,1.1-0.7,1.5
		c-0.4,0.4-1,0.6-1.6,0.6h-4.5c-0.6,0-1.1-0.2-1.6-0.6c-0.4-0.4-0.7-0.9-0.7-1.5V250c0-0.6,0.2-1.1,0.7-1.5c0.4-0.4,1-0.6,1.6-0.6
		H250.1z M246.4,250.7v9.7h2.9v-9.7H246.4z"/>
	<path class="st6" d="M257.8,253.4v9.9h-3.1v-15.4h4.2l2.5,10v-10h3.1v15.4h-4.2L257.8,253.4z"/>
	<path class="st6" d="M269.8,260.2l-0.6,3.1h-3.1l3-15.4h4.1l3,15.4H273l-0.6-3.1H269.8z M270.3,257.3h1.5l-0.7-6.6L270.3,257.3z"/>
	<path class="st6" d="M277.4,263.3v-15.4h3.1v12.6h4.2v2.9h-7.3V263.3z"/>
	<path class="st6" d="M212.2,272.5h-2.9v9.7h2.9v-2.4h3.1v3.1c0,0.6-0.2,1.1-0.7,1.5c-0.4,0.4-1,0.6-1.6,0.6h-4.5
		c-0.6,0-1.1-0.2-1.6-0.6c-0.4-0.4-0.7-0.9-0.7-1.5v-11.2c0-0.6,0.2-1.1,0.7-1.5c0.4-0.4,1-0.6,1.6-0.6h4.5c0.6,0,1.1,0.2,1.6,0.6
		c0.4,0.4,0.7,0.9,0.7,1.5v3.1h-3.1V272.5z"/>
	<path class="st6" d="M219.9,282.2h2.9v-12.6h3.1v13.3c0,0.6-0.2,1.1-0.7,1.5c-0.4,0.4-1,0.6-1.6,0.6h-4.5c-0.6,0-1.1-0.2-1.6-0.6
		c-0.4-0.4-0.7-0.9-0.7-1.5v-13.3h3.1V282.2z"/>
	<path class="st6" d="M228.3,269.6h6.7c0.6,0,1.1,0.2,1.6,0.6c0.4,0.4,0.7,0.9,0.7,1.5v4c0,1.2-0.4,2.1-1.3,2.8
		c-0.8,0.7-1.9,1-3.2,1h-1.4v5.5h-3.1V269.6z M231.3,272.5v4.2h1.4c1,0,1.4-0.3,1.4-1v-3.2H231.3z"/>
</g>
<g>
	<g>
		<polygon class="st2" points="441,184 393,221 55,221 7,184 55,149 393,149 		"/>
		<path class="st1" d="M393.9,223.5H54.1L2.8,183.9l51.4-37.4h339.6l51.4,37.4L393.9,223.5z M55.9,218.5h336.3l44.7-34.4l-44.6-32.6
			H55.8l-44.6,32.6L55.9,218.5z"/>
	</g>
</g>
<g>
	<path class="st1" d="M124.8,169.1h-9.2v7.7c0,2.1,1.5,3.1,4.6,3.1c4,0,7.3,1.1,10,3.2c2.8,2.3,4.3,5.3,4.3,9v10.1
		c0,1.8-0.7,3.4-2.1,4.7c-1.4,1.3-3.1,1.9-5,1.9h-14.2c-1.9,0-3.6-0.6-5-1.9c-1.4-1.3-2.1-2.9-2.1-4.7v-9.8h9.7v7.5h9.2v-7.7
		c0-2.1-1.5-3.1-4.6-3.1c-4,0-7.3-1.1-10-3.2c-2.8-2.3-4.3-5.3-4.3-9v-10.1c0-1.8,0.7-3.4,2.1-4.7s3.1-1.9,5-1.9h14.2
		c1.9,0,3.6,0.6,5,1.9c1.4,1.3,2.1,2.9,2.1,4.7v9.8h-9.7V169.1z"/>
	<path class="st1" d="M150.4,199.8h16.1v9h-25.8v-48.7h25.8v9h-16.1v10.8h13.4v9h-13.4V199.8z"/>
	<path class="st1" d="M180.5,198.9l-2,9.9h-9.8l9.4-48.7H191l9.4,48.7h-9.8l-1.9-9.9H180.5z M182.3,189.9h4.7l-2.4-20.8L182.3,189.9
		z"/>
	<path class="st1" d="M222.5,169.1h-9.2v7.7c0,2.1,1.5,3.1,4.6,3.1c4,0,7.3,1.1,10,3.2c2.8,2.3,4.3,5.3,4.3,9v10.1
		c0,1.8-0.7,3.4-2.1,4.7c-1.4,1.3-3.1,1.9-5,1.9h-14.2c-1.9,0-3.6-0.6-5-1.9c-1.4-1.3-2.1-2.9-2.1-4.7v-9.8h9.7v7.5h9.2v-7.7
		c0-2.1-1.5-3.1-4.6-3.1c-4,0-7.3-1.1-10-3.2c-2.8-2.3-4.3-5.3-4.3-9v-10.1c0-1.8,0.7-3.4,2.1-4.7c1.4-1.3,3.1-1.9,5-1.9h14.2
		c1.9,0,3.6,0.6,5,1.9c1.4,1.3,2.1,2.9,2.1,4.7v9.8h-9.7V169.1z"/>
	<path class="st1" d="M259.4,160.1c1.9,0,3.6,0.6,5,1.9c1.4,1.3,2.1,2.9,2.1,4.7v35.4c0,1.8-0.7,3.4-2.1,4.7s-3.1,1.9-5,1.9h-14.2
		c-1.9,0-3.6-0.6-5-1.9c-1.4-1.3-2.1-2.9-2.1-4.7v-35.4c0-1.8,0.7-3.4,2.1-4.7c1.4-1.3,3.1-1.9,5-1.9L259.4,160.1L259.4,160.1z
		 M247.7,169.1v30.7h9.2v-30.7H247.7z"/>
	<path class="st1" d="M283.8,177.4v31.4h-9.7v-48.7h13.4l7.9,31.5v-31.5h9.7v48.7h-13.4L283.8,177.4z"/>
	<path class="st1" d="M330.9,169.1h-9.2v7.7c0,2.1,1.5,3.1,4.6,3.1c4,0,7.3,1.1,10,3.2c2.8,2.3,4.3,5.3,4.3,9v10.1
		c0,1.8-0.7,3.4-2.1,4.7s-3.1,1.9-5,1.9h-14.2c-1.9,0-3.6-0.6-5-1.9c-1.4-1.3-2.1-2.9-2.1-4.7v-9.8h9.7v7.5h9.2v-7.7
		c0-2.1-1.5-3.1-4.6-3.1c-4,0-7.3-1.1-10-3.2c-2.8-2.3-4.3-5.3-4.3-9v-10.1c0-1.8,0.7-3.4,2.1-4.7s3.1-1.9,5-1.9h14.2
		c1.9,0,3.6,0.6,5,1.9c1.4,1.3,2.1,2.9,2.1,4.7v9.8h-9.7V169.1z"/>
</g>
<path class="st2" d="M221.4,375.8c18,0,32.6-14.6,32.6-32.6c0-9.5-4.1-18.1-10.6-24.1l-5.8,7.1c4.5,4.3,7.3,10.3,7.3,17
	c0,4.2-1.1,8.1-3,11.5l0,0l-13.1-12.6l-6-13.4v20.5l13,12.4c-4,3.1-9,4.9-14.4,4.9s-10.4-1.8-14.4-4.9l13-12.4v-20.5l-6,13.4
	l-13,12.6c-1.9-3.4-3-7.3-3-11.5c0-6.7,2.8-12.7,7.3-17l-5.8-7.1c-6.5,6-10.6,14.6-10.6,24.1C188.8,361.2,203.4,375.8,221.4,375.8"
	/>
<g>
	<path class="st5" d="M343.7,102.2v5.7h-0.9v-5.7H342v-0.8h2.5v0.8H343.7z"/>
	<path class="st5" d="M346.8,105.2l0.8-3.8h1v6.5h-0.9l0.1-4.2l-0.6,3.1h-0.7l-0.6-3.1l0.1,4.2h-0.9v-6.5h1L346.8,105.2z"/>
</g>
</svg>
