<?xml version="1.0" encoding="utf-8"?>
<!-- Generator: Adobe Illustrator 21.0.0, SVG Export Plug-In . SVG Version: 6.00 Build 0)  -->
<svg version="1.1" id="Слой_1" xmlns="http://www.w3.org/2000/svg" xmlns:xlink="http://www.w3.org/1999/xlink" x="0px" y="0px"
     viewBox="0 0 300 300" style="enable-background:new 0 0 300 300;" xml:space="preserve">
<style type="text/css">
    .st0{fill:#A9A9A9;}
</style>
<g>
    <rect x="23.1" y="261.9" class="st0" width="65.7" height="36.1"/>
    <path class="st0" d="M87.9,66.8c0,0,0-4.6,0-6.5C83.2,15.9,55.5,2,55.5,2S27.7,15.9,23.1,60.3c0,1.8,0,6.5,0,6.5v170.2h32.4h32.4
        V66.8z"/>
</g>
<g>
    <rect x="119.3" y="261.9" class="st0" width="65.7" height="36.1"/>
    <path class="st0" d="M184.1,66.8c0,0,0-4.6,0-6.5C179.4,15.9,151.7,2,151.7,2s-27.8,13.9-32.4,58.3c0,1.8,0,6.5,0,6.5v170.2h32.4
        h32.4V66.8z"/>
</g>
<g>
    <rect x="215.5" y="261.9" class="st0" width="65.7" height="36.1"/>
    <path class="st0" d="M280.2,66.8c0,0,0-4.6,0-6.5C275.6,15.9,247.9,2,247.9,2s-27.8,13.9-32.4,58.3c0,1.8,0,6.5,0,6.5v170.2h32.4
        h32.4V66.8z"/>
</g>
</svg>
