<?xml version="1.0" encoding="utf-8"?>
<!-- Generator: Adobe Illustrator 21.0.0, SVG Export Plug-In . SVG Version: 6.00 Build 0)  -->
<svg version="1.1" id="Layer_1" xmlns="http://www.w3.org/2000/svg" xmlns:xlink="http://www.w3.org/1999/xlink" x="0px" y="0px"
	 viewBox="0 0 1467 339.7" style="enable-background:new 0 0 1467 339.7;" xml:space="preserve">
<style type="text/css">
	.st0{fill:#B3B3B3;}
</style>
<g>
	<path class="st0" d="M179.8,18.9c1.8,0.2,3.7,0.3,5.4,1.1c1.3,0.1,2.6,0.3,3.9,0.4c3,1.1,6.1,1.5,9.1,2.5c1.3,0.2,2.7,0.3,4,0.5
		c1.3,0.5,2.6,1,3.9,1.4c2.5,0.6,5,1.3,7.6,1.6l-0.1,0.4c3.8,0.6,7.5,1.9,11.2,3c3.5,0.9,7,1.7,10.3,3.1c1.2,0.1,2.3,0.2,3.5,0.4
		l-0.1,0.8c0.7,0.1,2.2,0.2,2.9,0.3c1.2,0.5,2.5,0.9,3.8,1.4c2.4,0.6,4.7,1.3,7,2.1c2.7,0.9,5.3,1.8,8.1,2.5
		c1.9,0.7,3.8,1.3,5.8,1.9c1.4,0.5,2.8,1,4.2,1.5c1,0.3,1.9,0.7,2.9,1c1.4,0.5,2.7,1,4.1,1.5c1.3,0.5,2.5,1.1,3.8,1.6
		c1.1,0.4,2.1,0.8,3.2,1.2c1.6,0.8,3.3,1.5,4.9,2.2c1.7,0.9,3.4,1.8,5.1,2.8c0.2,0,0.7,0,0.9-0.1c2.2,1.6,4.6,2.9,7,4.2
		c1.2,0.8,2.4,1.6,3.6,2.4c4.8,2.9,8.7,7,12.9,10.7c0,0.2-0.1,0.7-0.1,0.9l0.7-0.4c2.8,3.4,5.5,6.9,7.9,10.6
		c0.6,1.2,1.3,2.4,1.9,3.6l0.4-0.1c0.4,1.1,0.8,2.3,1.2,3.4c0.6,1.3,1.2,2.6,1.8,3.9c1.2,4.2,2.9,8.4,3.5,12.8c0.2,0,0.5,0,0.7,0.1
		c0.1,2.3,0.2,4.7,0.3,7l0.7-0.1c0.6,10.8,2,21.7,0.5,32.5c-0.2,2.2-0.3,4.5-0.4,6.7L337,152c-0.1,1.9-0.3,3.7-0.5,5.6
		c-0.8,1.9-1.4,3.9-2,5.9c-0.5,1.4-1,2.8-1.5,4.1c-0.7,1.4-1.4,2.7-2.2,4l-0.1,0.8c-0.4,0.6-1.1,1.8-1.5,2.4L329,175
		c-0.8,1.2-1.7,2.4-2.5,3.7c-0.3,0.3-0.9,1-1.2,1.4H325c-0.2,0.4-0.8,1.1-1,1.5c-1.2,1.1-2.4,2.3-3.6,3.4c-1.4,0.9-2.8,1.9-4.2,2.8
		c-0.5,0.3-1.5,1-2,1.3c-0.2,0-0.8,0-1,0.1c-8.5,4.7-18.7,3.2-28,2.7c-3.6-1.2-7.3-2.1-10.9-3.6c-1.2-0.5-2.5-0.9-3.7-1.4v-1
		c-0.5,0.1-1.4,0.4-1.8,0.5l0.1-1.3l-0.9,0.1c0.2-24.8,0-49.7,0.1-74.5c-0.1-9.8,0.2-19.7-0.3-29.5c-0.2,0-0.5,0-0.7,0
		c-0.6-8.1-8.7-14.7-16.8-13c-0.5,0.3-1.5,1-2.1,1.4c-3.5,3.5-4.9,8.4-4.5,13.2c-0.1,72.3,0,144.6,0,216.9
		c0.1,6.2-0.2,12.4,0.3,18.6c-0.6,0.1-2,0.1-2.6,0.2c0.6-0.4,1.2-0.9,1.7-1.4c-3.1,0.7-5.9-0.7-8.7-1.7c-2.7-0.9-5.4-1.8-8.1-2.5
		c-1.3-0.5-2.6-1-3.9-1.5c-0.7-0.1-1.9-0.2-2.6-0.2l0.1-0.6c-2.4-0.5-4.7-1.2-7-2c-2-0.6-4-1.3-6.1-1.6l0.1-0.6
		c-0.6-0.1-2-0.2-2.6-0.3c-1.3-0.5-2.5-1-3.8-1.5c-1-0.3-2-0.5-3.1-0.8c-1.3-0.4-2.6-0.8-4-1.3c-3-1-6-1.9-9-2.9
		c-1.5-0.4-2.9-0.9-4.4-1.3C179.8,204.9,179.9,111.9,179.8,18.9z"/>
	<path class="st0" d="M763.3,89.8c12.2-0.2,25.1,0,35.9,6.2c0.4,0,1.1,0,1.5,0l-0.1,0.7c3.3,1.7,6.1,4.1,8.9,6.5
		c0.3,0.3,0.8,0.9,1,1.2c1.4,1.6,2.7,3.2,4.1,4.8c0.4,0.8,0.9,1.7,1.4,2.5c0.6,0.9,1.2,1.8,1.9,2.8c0,0.2,0,0.8,0,1
		c1,1.9,1.9,3.9,2.8,5.8c0,0.7,0.1,2.1,0.1,2.8l0.9-0.1c0.1,1.8,0.3,3.7,0.4,5.5c1.6,6,0.7,12.3,0.6,18.5H822
		c-0.1,1.8-0.2,3.6-0.3,5.5c-0.9,2.4-1.6,4.8-2.7,7.1c-0.1,0.3-0.2,0.9-0.2,1.2c-1.2,2.2-2.4,4.5-3.6,6.7c-2.5,3.4-5.2,6.8-8.6,9.4
		c-1.4,1-2.8,2-4.1,3.1h-0.3c-2.9,1.8-6,3.3-9.3,4.4v0.4c-2.6,0.3-5,1.1-7.4,2c-3,0.2-6,0.4-8.9,1.2c-55.5,0.4-111-0.2-166.6,0.3
		c0,0.2,0,0.5,0,0.7c-2,0.2-4,0.9-5.6,2.2c-0.3,0-1-0.1-1.3-0.2v1.2l-0.8-0.1c-3.4,2.9-6,6.5-8.1,10.4c-0.6,1.7-1.2,3.4-1.6,5.1
		c-1.7,6.9-1.1,14-1.2,21c-0.1,14.8,0.1,29.7-0.1,44.5c-13.1,0.2-26.1,0-39.2,0.1c-0.2-17.5,0-35-0.1-52.5c0.1-4.4-0.2-8.8,0.7-13.1
		c0.2-1.3,0.5-2.7,0.7-4c0.4-1.3,0.8-2.7,1.3-4c0.8-2.6,1.9-5.1,3.2-7.6c1.6-3.1,3.5-5.9,5.6-8.7h0.8l-0.2-0.9
		c0.6-0.4,1.6-1.2,2.2-1.6l-0.1-0.9l0.8,0.3c0.2-0.3,0.7-1,1-1.3c1.9-1.6,3.9-3.2,5.9-4.8c0.3,0,1,0.1,1.3,0.1l0.2-0.9
		c1.1-0.5,2.3-1,3.4-1.5c1.3-0.6,2.6-1.1,3.9-1.6c4.3-1.1,8.6-2.3,13.1-2.1c52.7-0.1,105.4,0,158,0c3.4-0.1,6.9,0.4,10.1-0.6
		c1.6-0.4,3.2-0.7,4.8-1.1c5.3-2.3,9.7-6.5,12-11.8c0.7-2,1.4-4,2.2-6c0.1-1.9,0.3-3.8,0.3-5.7c0.2,0,0.6,0.1,0.8,0.2
		c0-3.3,0-6.6-0.1-9.8h-0.7c-0.1-1.6-0.2-3.2-0.3-4.9c-0.4-1.2-0.9-2.5-1.3-3.7c-0.4-1-0.9-2.1-1.3-3.1c-0.1-0.5-0.4-1.4-0.5-1.9
		c-0.7-0.8-1.4-1.6-2.1-2.5l-0.2-0.1c-0.6-0.8-1.2-1.7-1.8-2.5c-0.3-0.2-1-0.6-1.3-0.8c-1.8-1.6-3.8-3.1-6.3-3.3
		c0-0.3,0-0.8-0.1-1.1c-1.5-0.1-3.1-0.3-4.6-0.5c-1.2-0.4-2.5-0.8-3.8-0.8c-69.2,0-138.4,0-207.6,0c0-6.4-0.1-12.9,0.1-19.3
		C622.2,89.8,692.7,89.8,763.3,89.8z"/>
	<path class="st0" d="M1005.7,89.8v-0.6c39.9,0.2,79.7,0,119.6,0.1c0.8,0.2,2.4,0.7,3.2,0.9c-0.1,6.3,0,12.6-0.1,18.9
		c-32.7,0.2-65.4,0-98.1,0.1c-5.3,0.2-10.8-0.6-16,0.7c-3.3,0.5-6.3,1.8-9.2,3.3c-3.6,2.6-6.4,6.2-8.2,10.2
		c-0.6,1.8-1.2,3.5-1.9,5.3c-0.2,1.3-0.3,2.7-0.4,4c-1,3.2-0.8,6.6-0.8,9.9c0,27,0,53.9,0,80.9c-0.1,4.6,0,9.3-1.1,13.8l-0.6-0.2
		c-0.1,1.5-0.3,2.9-0.4,4.4c-3,9-8.2,17.4-16,22.9l-0.1,0.7c-0.4,0-1.2-0.1-1.7-0.1l-0.1,0.9c-1.6,0.8-3.2,1.7-4.7,2.6
		c-0.9,0.4-1.9,0.8-2.8,1.2c-1.5,0.6-3.1,1.2-4.7,1.6l0.1,0.5c-14,3.4-28.4,2.2-42.7,2.4c-35.1-0.1-70.1,0.2-105.2-0.2
		c-0.1-6.3,0-12.6-0.1-18.9l1,0.2l-0.2-1.1c38.5-0.1,77,0,115.5,0c3.5,0.1,6.8-0.9,10.1-2.1c2.1-1.2,4.1-2.7,6-4.2
		c2.5-2.6,4.3-5.8,5.7-9.1c2.3-5.8,1.9-12,2.1-18.1c0.3-2.3,0.3-4.7,0.3-7c-1-6.3,0-12.7,0-19c-0.4-3.3-0.3-6.7,0-10
		c-0.7-3.3-0.2-6.7-0.3-10c0.3-2.3,0.3-4.7,0.3-7c-1-8,0.3-16-0.1-24c-0.4-2.3-0.4-4.7,0.1-7c0.2-2.7,0.2-5.4,0.9-8.1
		c0.2-1.5,0.4-3,0.5-4.4h0.6c0.3-1.5,0.6-3,1-4.5c1.1-2.8,2.4-5.5,3.8-8.2c1.3-2,2.7-3.9,4.2-5.6c0.3-0.3,0.9-0.8,1.2-1.1l-0.2-0.4
		c0.9-0.8,1.9-1.7,2.8-2.5c2.8-2.4,5.8-4.7,9.2-6.2l0.2-0.4c2.3-0.9,4.6-1.8,7-2.5c0-0.2,0-0.5,0-0.6c1,0,3-0.1,4-0.2l-0.2-0.7
		c1.6-0.2,3.1-0.4,4.7-0.6C998,89.9,1001.9,89.8,1005.7,89.8z"/>
	<g>
		<path class="st0" d="M1353.3,90.5c2.3-0.4,4.6-0.7,6.9-1.2c1.4,0.5,2.8,0.8,4.2,1c1.6,0.7,3.1,1.5,4.6,2.5c0.2,0.2,0.7,0.8,1,1
			c0.9,1.1,1.8,2.3,2.6,3.4c0.4,1.6,0.9,3.2,1.4,4.8c0.1,0,0.4,0,0.6,0c0.5,44,0,88.1,0.2,132.1c13,0.2,26,0.1,39,0.1
			c-0.1,0.4-0.2,1.2-0.2,1.7h1c-0.1,6,0,12.1-0.1,18.1c-13.2,0.4-26.5-0.1-39.7,0.2c-0.2,6.6,0,13.2-0.2,19.7
			c-13,0.2-25.9,0-38.8,0.1c-0.2-0.4-0.7-1.1-1-1.4c0.1-6.1,0.2-12.3-0.1-18.4c-69.5-0.2-139,0-208.5-0.1c-3.5,0-7.1-0.1-10.2-1.9
			h-0.9c-1.9-1.5-3.3-3.4-4.5-5.5c0.1-1.8,0.2-3.5,0.4-5.3c1-1.4,2-2.8,3-4.1c1.7-1.6,3.5-3.1,5.3-4.6c3.3-1.9,6.6-4,10-6
			c1.3-0.9,2.6-1.8,3.9-2.7c0.3,0,1,0.1,1.3,0.1l0.1-0.8c2.6-1.5,5.2-3.2,7.9-4.7l0.1-0.7l1.2,0.2l0.1-1.2c0.4,0,1.1,0.1,1.4,0.1
			c0.5-0.4,1.4-1.2,1.8-1.6c1.1-0.6,2.3-1.2,3.5-1.8l0.1-0.9c0.4,0.1,1.3,0.2,1.7,0.2l0.1-0.8c2-1.1,3.9-2.3,5.8-3.5
			c1.1-0.7,2.3-1.4,3.5-2.1l0.1-0.3c1.8-1,3.5-2,5.3-3c0.4-0.3,1.3-0.9,1.8-1.2c1.4-0.8,2.8-1.7,4.2-2.5c2.4-1.4,4.7-2.9,7.1-4.3
			c1.7-1,3.4-2.1,5-3.3c0.2,0,0.7,0,0.9-0.1c1.6-1.4,3.4-2.5,5.4-3.4l0.1-0.3c3-1.7,5.9-3.5,8.8-5.4c2-1.2,4-2.4,5.9-3.8h0.9
			c0.5-0.4,1.4-1.3,1.9-1.7c1.3-0.8,2.6-1.5,3.9-2.3c2.4-1.5,4.7-3,7.2-4.4c1.2-0.7,2.3-1.4,3.5-2.1v-0.8c0.5,0.1,1.4,0.2,1.9,0.3
			l-0.1-0.9c1.6-0.9,3.2-1.8,4.9-2.6V164c2.3-1.3,4.6-2.7,6.8-4.2c0.3,0,1,0,1.3,0v-0.7c1.2-0.8,2.5-1.5,3.7-2.3h0.8
			c0.4-0.3,1.3-1,1.7-1.3l0.1-0.7c0.3,0,0.9,0.1,1.3,0.1c1-0.8,2.1-1.6,3.2-2.4c2-1.1,4-2.3,5.8-3.8c0.3,0,0.9,0.1,1.2,0.1l0.1-0.7
			c4.3-2.4,8.3-5.2,12.6-7.7c2.3-1.4,4.6-2.9,6.9-4.4c3.5-2,7-3.9,10.1-6.3c0.2,0,0.7,0,0.9,0c1.6-1.2,3.3-2.3,5-3.3
			c2.4-1.5,4.9-3,7.2-4.6l1.2,0.1c0-0.2,0.1-0.6,0.2-0.8c0.4-0.3,1.2-1,1.6-1.3l0.8,0.1c1.6-1.2,3.4-2.3,5.2-3.3
			c1-0.7,2.1-1.3,3.2-2c0.8-0.5,1.6-1,2.4-1.5c2.2-1.3,4.5-2.6,6.5-4.2c0.2,0,0.7,0.1,0.9,0.1c1.6-1.4,3.4-2.6,5.3-3.5l0.1-0.3
			c0.9-0.5,1.8-1,2.8-1.5c2-1.3,4.1-2.6,6.2-3.8c0.9-0.7,1.7-1.4,2.6-2c0.3,0,1,0.1,1.3,0.1l0.1-1l1.1,0.1l0.1-1.1
			c0.4,0,1.3,0.1,1.7,0.2l0.1-0.9c2.5-1.2,5-2.5,7.5-3.6C1351.3,91.3,1352.3,90.9,1353.3,90.5z M1322.9,131.2
			c-4.5,2.8-9.1,5.4-13.5,8.5c-1,0.5-2.1,1.1-3,1.6c-1.3,0.8-2.6,1.7-3.9,2.5c-1.5,0.9-3,1.8-4.5,2.6l-0.2,0.7l-0.8-0.1
			c-0.5,0.3-1.5,1-1.9,1.3c-1.3,0.9-2.6,1.8-3.9,2.8c-0.3,0-1-0.2-1.3-0.2l-0.1,0.8c-1.2,0.7-2.3,1.4-3.5,2.1
			c-1.5,0.9-3,1.8-4.4,2.6l-0.1,0.3c-1.8,1-3.5,2-5.2,3c-1.1,0.8-2.2,1.5-3.3,2.3c-0.3,0-1-0.1-1.4-0.2v1.2l-1.2-0.2v1.2
			c-0.5-0.1-1.3-0.1-1.8-0.2l-0.2,1.2c-0.3,0-1,0-1.3,0c-3.1,2.3-6.4,4.2-9.7,6.1l-0.1,0.3c-1.8,1-3.5,2-5.2,3.1
			c-6.3,3.9-12.6,7.8-19,11.7c-1.1,0.7-2.3,1.4-3.4,2l-0.1,0.3c-2.6,1.5-5.2,3-7.8,4.5c-1.3,0.9-2.6,1.8-3.8,2.7
			c-0.2,0-0.7,0.1-0.9,0.1c-0.6,0.4-1.8,1.1-2.4,1.4v0.4c-1.2,0.6-2.3,1.2-3.4,1.9c-2.8,1.9-5.8,3.6-8.7,5.4
			c-2.9,1.9-5.8,3.8-8.9,5.3v0.4c-1.1,0.5-2.1,0.9-3.1,1.4l-0.1,0.4c-2.1,1.2-4.1,2.4-6.2,3.6l-0.1,0.8c-0.3,0-0.9,0-1.3,0
			c-2.8,2.1-5.9,4-8.9,5.8c-0.5,0.3-1.4,0.9-1.9,1.2l-0.8-0.2v1.2c-0.4,0-1.3-0.1-1.7-0.1l-0.1,0.8c-1.1,0.5-2.1,1-3.1,1.5l-0.1,0.9
			c-0.4-0.1-1.3-0.2-1.7-0.2v0.9c-1.1,0.5-2.1,0.9-3.1,1.4v0.6c-1,0.5-2,1-3,1.5c0,0.5-0.1,1.4-0.1,1.8c2.5,0.1,5,0.2,7.6,0.2
			c56.3-0.1,112.5,0.1,168.8-0.1c0.2-26.2,0-52.5,0.1-78.7c-0.2-10.2,0.5-20.4-0.4-30.6C1330.2,126,1326.8,129.2,1322.9,131.2z"/>
	</g>
	<path class="st0" d="M164.7,188c0.8,0,2.3,0,3.1,0c-0.1,12.2,0.1,24.4-0.1,36.6c-2.2,0.5-4.4,1.3-6.5,2.2c-0.6,0.1-1.7,0.3-2.2,0.4
		c-1.1,0.5-2.2,1.1-3.3,1.6c-0.4,0.1-1.2,0.2-1.6,0.3c-4.2,1.7-8.6,2.9-12.8,4.8c-0.7,0.1-2,0.2-2.6,0.3v0.6c-1.5,0.5-3,1-4.5,1.5
		c-1.2,0.4-2.4,0.7-3.6,1l0.2,0.5c-1.2,0.3-2.3,0.6-3.5,0.9c-1.6,0.5-3.1,1.1-4.7,1.5l0.1,0.6c-0.6,0.1-1.9,0.2-2.6,0.3
		c-1.7,0.8-3.5,1.5-5.4,2l-0.1,0.5c-4.7,1-9.1,3-13.7,4.6c-1.3,0.7-2.6,1.3-3.9,2c-1.1,0.7-2.1,1.5-3.2,2.2c-0.5,1.5-1,3-1.3,4.6
		l0.9-0.1c0.3,0.4,1,1.1,1.3,1.4l-0.1,0.5c1.2,0.5,2.4,1,3.6,1.5c1.5,0.4,3.1,0.7,4.6,1l-0.3,0.6c7.4,0.5,14.9,0.4,22.3,0l-0.3-0.7
		c4.4,0.1,8.5-1.3,12.5-2.9c0.6-0.1,1.7-0.3,2.2-0.5c1.2-0.5,2.4-1.1,3.6-1.6c1.5-0.5,3-1,4.5-1.4c1.3-0.5,2.5-1,3.8-1.5
		c1.4-0.5,2.7-0.9,4.1-1.4c2.2-0.8,4.4-1.6,6.5-2.6c0.5,0,1.4,0,1.9,0v-1c1.4-0.1,2.8-0.2,4.1-0.4c0,10.8-0.1,21.5,0.1,32.3
		c-2.7,0.6-5.4,1-8.1,1.2v0.6c-3.4,0-6.7,0.3-10.1,0.4l0.3,0.7c-4,0.1-8,0-11.9,0.6c-6.7,0.2-13.4,0.6-20-0.3
		c-3.9-0.2-7.8-0.3-11.6-0.4l0.2-0.7c-2.9-0.2-5.9-0.3-8.8-0.4c-0.3-1.2-1.1-2.7-1.8-0.9c-0.8,0-2.4,0-3.2-0.1l-0.5-0.4
		c-1.8-0.2-3.5-0.4-5.2-1c-1.7-0.3-3.5-0.5-5.1-1.1c-1.3-0.3-2.5-0.5-3.8-0.7c-1.3-0.4-2.7-0.9-4-1.4c-1.2-0.1-2.4-0.3-3.6-0.4
		l0.1-0.6c-3.2-0.7-6.4-1.8-9.5-2.9c-1.7-0.5-3.4-1.1-5.1-1.6c-1-0.5-2-1.1-3-1.6c-0.3,0-0.8,0-1.1,0c-0.5-0.3-1.5-0.9-2.1-1.3
		c-1.7-0.9-3.4-1.9-5.1-2.9c-1.7-1.4-3.3-2.9-5-4.3c-1.1-1.3-2.1-2.7-3.2-4c-2-4.5-2-9.8-0.2-14.3c2.2-2.9,4.8-5.4,7.9-7.5
		c1.7-1.1,3.5-2.1,5.3-3v-0.8c0.5,0.1,1.3,0.2,1.8,0.2l0.2-0.8c2.1-0.9,4.2-2,6.3-3c1.7-0.7,3.3-1.5,4.9-2.2
		c1.1-0.4,2.2-0.9,3.3-1.3c2.7-1.2,5.5-2.2,8.4-3.1l-0.1-0.7c0.7,0,2.1-0.1,2.8-0.2c1.1-0.6,2.1-1.1,3.2-1.6
		c0.4-0.1,1.3-0.3,1.8-0.4c1-0.4,2-0.7,3.1-1.1c3.2-1.2,6.4-2.3,9.6-3.5c1.1-0.4,2.1-0.7,3.2-1.1c1.6-0.6,3.3-1.2,4.9-2
		c0.6-0.1,1.7-0.4,2.3-0.5c3.2-1.4,6.4-2.4,9.7-3.6c2.7-0.9,5.4-1.8,8-3c0.5-0.1,1.6-0.3,2.2-0.4c1.6-0.8,3.3-1.4,5-2.1
		c1.2-0.3,2.4-0.6,3.6-0.9l-0.1-0.5c2.6-0.6,5.2-1.6,7.7-2.5c1.6-0.6,3.2-1.1,4.8-1.8c2.4-0.8,4.8-1.7,7.2-2.4
		c1.2-0.5,2.5-1,3.7-1.4c1.3-0.5,2.7-0.9,4-1.4c1.2-0.4,2.5-0.8,3.7-1.1L164.7,188z"/>
	<path class="st0" d="M317.8,203.9l-0.2-0.7c5.2,0.2,10.5-0.1,15.7,0.1c4.6,0.8,9.3,0.7,13.9,1.1c1.9,0.4,3.9,0.5,5.8,0.6l-0.3,0.7
		c2.8,0.1,5.6,0.2,8.4,0.5c3.6,1.2,7.5,1.2,11,2.5c1.5,0.2,3,0.4,4.4,0.6l-0.1,0.6c3.5,0.3,6.7,1.7,10.1,2.5v0.4
		c4.3,0.8,8.2,2.7,12.4,4c1.1,0.5,2.2,1,3.4,1.5c1.3,0.6,2.6,1.1,3.9,1.8c0.3,0,1-0.1,1.3-0.2l0.1,1.3c0.4,0,1.1-0.1,1.5-0.1
		c2,1.5,4.2,3,6.1,4.7c0.3,0,0.9,0.1,1.2,0.1v1.2h0.8c0.6,0.8,1.2,1.6,1.8,2.4c0.4,0.5,1.2,1.4,1.7,1.9c0,0.2,0,0.8,0,1
		c0.6,0.9,1.2,1.8,1.8,2.7c0.2,3.5,0.2,7.1-1.6,10.3c-0.5,0.8-1,1.6-1.5,2.4c-0.3,0.3-0.8,1-1.1,1.3H418c-0.3,0.3-0.8,1-1.1,1.4
		c-4.7,4.2-10.2,7.4-15.8,10.3c-2.7,1.3-5.4,2.6-8.2,3.5c-1,0.4-2,0.7-3,1c-6.9,2.7-13.9,5-20.8,7.5c-1.7,0.6-3.3,1.2-5,1.7
		c-1,0.4-2,0.8-3,1.2c-0.6,0.1-1.7,0.4-2.3,0.6c-1.6,0.7-3.2,1.3-4.8,1.8c-1.1,0.4-2.1,0.7-3.2,1.1c-3.2,1.2-6.5,2.4-9.7,3.6
		c-1.4,0.4-2.7,0.9-4.1,1.4c-1.3,0.5-2.6,1-3.9,1.5c-1,0.3-2.1,0.7-3.1,1c-1.7,0.6-3.3,1.2-4.9,2c-0.6,0.1-1.7,0.3-2.2,0.4
		c-1.6,0.7-3.2,1.4-4.9,2c-1.2,0.4-2.4,0.7-3.6,1.1v0.4c-5.9,1.5-11.5,4-17.2,5.9c-1.1,0.4-2.1,0.8-3.2,1.2
		c-2.4,0.8-4.7,1.7-7.1,2.5c-2.7,1-5.4,2-8.1,2.9c-1,0.4-2.1,0.7-3.1,1.1c-2.2,0.8-4.5,1.6-6.7,2.5c-4.8,1.5-9.4,3.9-14.4,4.7
		c0.1-11.8,0-23.6,0.1-35.4c0.9-1.8,3.4-1.8,5.1-2.7c2.4-0.7,4.7-1.6,7.1-2.5c2.1-0.8,4.2-1.5,6.3-2.2c1.8-0.7,3.5-1.3,5.3-1.8
		l-0.1-0.7c1.3-0.1,2.6-0.2,4-0.3v-0.7c2.5-0.8,5-1.7,7.5-2.6c1.7-0.6,3.3-1.2,5-1.8c1-0.4,2-0.8,3-1.1c1-0.4,2.1-0.7,3.1-1
		c1.6-0.6,3.2-1.3,4.9-1.8c4.3-1.4,8.5-3,12.8-4.6c1.1-0.4,2.1-0.8,3.2-1.1c0.4-0.1,1.1-0.2,1.4-0.3c1.1-0.5,2.3-1.1,3.4-1.6
		c0.6-0.1,1.7-0.3,2.2-0.4c4.7-2,9.5-3.5,14.3-5.2c0.8-0.2,2.3-0.7,3.1-0.9l-0.1-0.5c1.2-0.3,2.4-0.6,3.6-0.9c2.5-1,5-1.9,7.6-2.6
		v-0.4c1.7-0.4,3.3-1.2,4.7-2.2l0.9,0.1c0.3-0.4,0.8-1.2,1.1-1.6c0.4-0.2,1.1-0.6,1.5-0.8c1.4-2.7,0.2-5.4-2.4-6.7
		c-1.1-0.4-2.2-0.8-3.3-1.3c-2.1-0.9-4.4-0.8-6.6-0.9l0.2-0.6c-5.1,0-10.4-0.8-15.4,0.6c-2,0.1-4,0.2-6,0.4
		c-2.7,0.9-5.4,1.4-8.1,2.3c-2.7,0.9-5.4,1.9-8.1,2.8c-1.3,0.5-2.6,1-3.9,1.6c-0.5,0.1-1.5,0.2-2,0.3c-1.7,0.8-3.3,1.4-5.1,2
		c-2.7,1-5.4,2-8.3,2.4c0,0.2,0,0.7-0.1,0.9c-1.5,0.3-3,0.7-4.5,1.1c-1,0.4-1.9,0.7-2.9,1.1c-1.7,0.6-3.4,1.2-5.1,1.8
		c-1.3,0.4-2.6,0.9-3.9,1.4c-2.7,0.9-5.4,1.8-8.1,2.9c-0.5,0.1-1.5,0.3-2,0.4c-1.7,0.7-3.4,1.4-5.1,2c-1,0.3-2,0.6-3,0.9
		c-2.3,1-4.6,1.8-7.1,2.2c0-11.3,0.1-22.7,0-34c-0.1-1.5,0.2-2.9,0.7-4.3c2.3-0.3,4.4-1,6.5-1.9c0.7-0.1,2.1-0.4,2.8-0.5
		c3.6-1.4,7.4-2.3,11.2-3.1c1.6-0.6,3.3-0.8,5-1c1.6-0.5,3.3-0.9,4.9-1.4c1.9-0.2,3.8-0.3,5.7-0.4l-0.1-0.7c3-0.1,6-0.3,9-0.4
		l-0.2-0.7C306.2,204.5,312,203.8,317.8,203.9z"/>
	<path class="st0" d="M1468.1,253.2c1.1-0.1,2.3-0.2,3.5-0.2c1.7,6.5,0.2,13.3,0.8,19.9c-0.3,0-0.8,0-1,0l0.4,1.4l-1.2-0.7
		c-0.1,0.5-0.4,1.5-0.5,2c-1.1-4.8-0.6-9.8-0.5-14.7c-0.4,0-1.3,0-1.7,0c-0.8,2.8-1.6,5.7-2.6,8.4c-0.5,1.4-0.8,2.9-1.1,4.4
		c-1.1,0.1-2.2,0.2-3.2,0.3c-1.7-5.2-3.5-10.4-5.1-15.6c-0.5,5.1-0.3,10.2-0.2,15.4c-0.7,0-2.2,0.1-2.9,0.2c-0.1-6.8,0-13.5,0-20.3
		c1.3,0,2.6,0,4-0.1c0.4,1.5,0.9,3,1.2,4.5l0.5-0.1c0.8,3.2,1.8,6.3,2.9,9.4c0.3,1.1,0.6,2.2,1,3.3
		C1464.2,265,1466.5,259.2,1468.1,253.2z"/>
	<path class="st0" d="M1433.8,253.1c5.3,0.1,10.7,0.1,16,0c-0.1,0.9-0.1,1.8-0.1,2.8c-2.1,0-4.2-0.1-6.3-0.1c0,5.6-0.1,11.2,0,16.9
		c-0.5,0.9-1,1.9-1.5,2.8c0-0.4-0.1-1.2-0.1-1.6c-0.3,0.1-0.9,0.2-1.3,0.2c-0.1-6.1,0-12.2,0-18.4c-2,0-4.1,0.1-6,0.2l0.1-0.9
		l-1.2,0.2L1433.8,253.1z"/>
	<g>
		<path class="st0" d="M394.2,288.6c3.7-1.2,7.7-0.8,11.3,0.4c3.5,1.9,6.2,4.9,7.8,8.5c0.8,3,0.7,6.1,0.3,9.1
			c-0.5,1.1-0.9,2.3-1.3,3.5h-0.2c-1.5,2.4-3.6,4.3-5.8,6c-0.2,0-0.7,0.1-0.9,0.1c-3.8,1.6-8.5,1.6-12.3,0c-0.2,0-0.7,0-0.9,0
			c-2.3-1.8-4.4-3.9-6.1-6.3c-0.4-1.1-0.8-2.1-1.3-3.2c-0.3-3.1-0.6-6.2,0.5-9.2c0.5-1.1,1-2.2,1.5-3.2c1.3-1.5,2.6-2.8,4.1-4.1
			C392,289.7,393.1,289.1,394.2,288.6z M398,290.2c-1.8,0.6-3.5,1.2-5.3,1.9c-4,2.9-6.4,7.7-5.8,12.7c0.5,1.2,1,2.5,1.5,3.7
			c0.7,0.9,1.3,1.9,2,2.8c0.3,0.3,0.8,0.8,1.1,1.1c1.6,1.1,3.3,1.9,5.2,2v0.6c1.5,0,2.9-0.1,4.4-0.1c1.8-0.7,3.6-1.4,5.4-2.1v-0.4
			c4.4-3.5,6-9.8,3.7-14.9C407.9,292.9,403.2,290.1,398,290.2z"/>
	</g>
	<g>
		<path class="st0" d="M392.9,294.2c3.2-0.1,6.4-0.1,9.6,0c1.1,0.7,2.2,1.4,3.4,2.1c-0.3,2.1,0.9,5.4-1.8,6.3c3,1.2,1.1,5.4,2,7.9
			c-0.8-0.1-2.4-0.2-3.2-0.3c0-2-0.1-4-0.2-6c-2.3-0.1-4.6-0.1-6.9-0.2c0,2.4,0,4.9-0.2,7.4c-0.9-0.4-2.1-0.6-2.7-1.5
			C392.7,304.6,392.9,299.4,392.9,294.2z M395.8,296.9c0,1.1,0,3.3,0,4.4c2.3,0,4.7-0.1,7-0.2c0-1.3,0-2.7,0-4
			C400.5,297,398.1,296.9,395.8,296.9z"/>
	</g>
</g>
</svg>
