<?xml version="1.0" encoding="utf-8"?>
<!-- Generator: Adobe Illustrator 21.0.0, SVG Export Plug-In . SVG Version: 6.00 Build 0)  -->
<svg version="1.1" id="Слой_1" xmlns="http://www.w3.org/2000/svg" xmlns:xlink="http://www.w3.org/1999/xlink" x="0px" y="0px"
	 viewBox="0 0 646 661" style="enable-background:new 0 0 646 661;" xml:space="preserve">
<style type="text/css">
	.st0{fill:url(#SVGID_1_);}
	.st1{fill:#FF9B00;}
	.st2{fill:#545454;}
	.st3{fill:#FAFAFA;}
	.st4{fill:#FFFFFF;}
	.st5{enable-background:new    ;}
</style>
<linearGradient id="SVGID_1_" gradientUnits="userSpaceOnUse" x1="112" y1="345.89" x2="534.2" y2="345.89" gradientTransform="matrix(1 0 0 -1 0 661.89)">
	<stop  offset="0" style="stop-color:#FFC37F"/>
	<stop  offset="0.1346" style="stop-color:#FFB85D"/>
	<stop  offset="0.2961" style="stop-color:#FFAE3C"/>
	<stop  offset="0.462" style="stop-color:#FFA621"/>
	<stop  offset="0.6317" style="stop-color:#FFA00F"/>
	<stop  offset="0.8074" style="stop-color:#FF9C04"/>
	<stop  offset="0.9988" style="stop-color:#FF9B00"/>
</linearGradient>
<path class="st0" d="M483,106.7c0.8-9.8,1.4-19.7,1.8-29.8c-13.8,0-24.7-11.3-24.2-24.9H185c0.6,13.6-10.4,24.9-24.2,24.9
	c0.4,10.1,1,20,1.8,29.8H112v12.2c0.1,46.1,11.4,89.6,31.8,122.5c18.1,29.3,41.7,47.5,67.6,52.5c26,50.5,60.2,83.5,98,89.8
	c-4.3,90.3-34.7,163.5-74.3,181.9V580h173.6v-14.3c-39.5-18.4-69.9-91.4-74.3-181.5c38.5-5.6,73.3-38.8,99.7-90
	c26.1-4.8,50-23.1,68.3-52.6c20.4-32.9,31.6-76.4,31.8-122.5v-12.2H483V106.7z M164.8,228.7c-16.3-26.3-26-60.6-27.8-97.6h28
	c5.9,49,17,93.7,32.1,131.5C185.3,255.5,174.3,244,164.8,228.7z M481.5,228.7c-9.7,15.7-21,27.3-33.2,34.3
	c15.2-37.9,26.4-82.8,32.3-132h28.7C507.5,168.2,497.7,202.5,481.5,228.7z"/>
<path class="st1" d="M309.3,383.8c-4.3,90.3-34.7,163.5-74.3,181.9V580h173.6v-14.3c-39.5-18.4-69.9-91.4-74.3-181.5L309.3,383.8z"
	/>
<path class="st2" d="M430.5,609.7H213.4v-17.2c0-6.7,5.5-12.1,12.2-12.1h192.6c6.7,0,12.2,5.4,12.2,12.1L430.5,609.7L430.5,609.7z"
	/>
<g>
	<g>
		<path class="st3" d="M315.9,147.7h2.6l2.8-6l2.6,6h2.8c0.9-1.8,2.1-4,2.8-5.9l2.5-6.1h-3.9l-2.5,6.1l-2.8-6.1h-2.7l-2.8,6
			l-1.9-4.4c-0.3-0.7-0.3-0.9-0.6-1.5h-4.3L315.9,147.7L315.9,147.7z M388.2,135.7h4v12.1h-4v-4.6h-7.5v4.6h-4v-12.1h4v4.3h7.5
			V135.7L388.2,135.7z M340.2,135.7H337l-8,12.1h4.7l4.9-7.6l4.9,7.8h4.4L340.2,135.7L340.2,135.7z M344.9,138.9h5.4v8.9h4v-8.9h4.1
			c0.7-1.1,1.5-2.1,2.2-3.2h-15.7V138.9L344.9,138.9z M270.2,147.8h2.9l8-12h-4.7l-4.5,7.3l-4.7-7.3h-4.4L270.2,147.8L270.2,147.8z
			 M280.9,138.7v9.1h12.5v-3.2h-8.6V143h6v-2.5h-6v-1.6h8.6v-3h-10.6L280.9,138.7L280.9,138.7z M360,139.9v5.6c0,0.8,1,2.4,2.6,2.4
			h8.3c2.5,0,4-0.7,4-3.2v-1.4h-4v1.4H364v-5.8h6.9v1.3h4v-1.5c0-1.3-0.9-2.9-3.3-2.9h-9C362.2,136.5,360,139.4,360,139.9L360,139.9
			z M295.2,147.8h4.3V139h6.5v1.9h-4.5v2.4l4.9,4.5h5.3l-4.9-4.6c2.6,0.1,3.1-1.3,3.1-2.5v-2.5c0-1.7-1.3-2.4-2.9-2.4h-11.7
			L295.2,147.8L295.2,147.8z M246.9,139.1v6.1c0,1,0.6,1.7,1.6,2.4l2.6-2.9l0.1-5.6h7.5v5.6H253l-2.6,3.1h9.9c0.7,0,2.6-1,2.6-2.6
			V139c-0.6-0.9-1.5-2.4-2.1-3.2h-10.6C248.1,135.9,246.9,137,246.9,139.1L246.9,139.1z"/>
		<polygon class="st3" points="268.8,135.6 275.2,135.6 272,131.1 		"/>
		<polygon class="st3" points="341.8,147.8 335.4,147.8 338.7,152.4 		"/>
	</g>
	<g>
		<path class="st4" d="M249.2,166h-6.9v5.8c0,1.6,1.1,2.3,3.4,2.3c3,0,5.5,0.8,7.5,2.4c2.1,1.7,3.2,4,3.2,6.8v7.6
			c0,1.4-0.5,2.6-1.6,3.6c-1,1-2.3,1.4-3.7,1.4h-10.6c-1.4,0-2.7-0.5-3.7-1.4c-1-1-1.6-2.2-1.6-3.6v-7.4h7.3v5.7h6.9v-5.8
			c0-1.6-1.1-2.3-3.4-2.3c-3,0-5.5-0.8-7.5-2.4c-2.1-1.7-3.2-4-3.2-6.8v-7.6c0-1.4,0.5-2.6,1.6-3.6s2.3-1.4,3.7-1.4h10.6
			c1.4,0,2.7,0.5,3.7,1.4s1.6,2.2,1.6,3.6v7.4h-7.3V166z"/>
		<path class="st4" d="M268.4,189.2h12.1v6.8h-19.3v-36.8h19.3v6.8h-12.1v8.2h10v6.8h-10V189.2z"/>
		<path class="st4" d="M290.9,188.5l-1.5,7.5h-7.3l7-36.8h9.7l7,36.8h-7.3l-1.4-7.5H290.9z M292.3,181.7h3.5L294,166L292.3,181.7z"
			/>
		<path class="st4" d="M322.4,166h-6.9v5.8c0,1.6,1.1,2.3,3.4,2.3c3,0,5.5,0.8,7.5,2.4c2.1,1.7,3.2,4,3.2,6.8v7.6
			c0,1.4-0.5,2.6-1.6,3.6c-1,1-2.3,1.4-3.7,1.4h-10.6c-1.4,0-2.7-0.5-3.7-1.4c-1-1-1.6-2.2-1.6-3.6v-7.4h7.3v5.7h6.9v-5.8
			c0-1.6-1.1-2.3-3.4-2.3c-3,0-5.5-0.8-7.5-2.4c-2.1-1.7-3.2-4-3.2-6.8v-7.6c0-1.4,0.5-2.6,1.6-3.6c1-1,2.3-1.4,3.7-1.4h10.6
			c1.4,0,2.7,0.5,3.7,1.4s1.6,2.2,1.6,3.6v7.4h-7.3V166z"/>
		<path class="st4" d="M350.1,159.2c1.4,0,2.7,0.5,3.7,1.4s1.6,2.2,1.6,3.6V191c0,1.4-0.5,2.6-1.6,3.6c-1,1-2.3,1.4-3.7,1.4h-10.6
			c-1.4,0-2.7-0.5-3.7-1.4c-1-1-1.6-2.2-1.6-3.6v-26.8c0-1.4,0.5-2.6,1.6-3.6c1-1,2.3-1.4,3.7-1.4H350.1L350.1,159.2z M341.3,166
			v23.2h6.9V166H341.3z"/>
		<path class="st4" d="M368.4,172.2V196h-7.3v-36.8h10L377,183v-23.8h7.3V196h-10L368.4,172.2z"/>
		<path class="st4" d="M403.7,166h-6.9v5.8c0,1.6,1.1,2.3,3.4,2.3c3,0,5.5,0.8,7.5,2.4c2.1,1.7,3.2,4,3.2,6.8v7.6
			c0,1.4-0.5,2.6-1.6,3.6c-1,1-2.3,1.4-3.7,1.4H395c-1.4,0-2.7-0.5-3.7-1.4c-1-1-1.6-2.2-1.6-3.6v-7.4h7.3v5.7h6.9v-5.8
			c0-1.6-1.1-2.3-3.4-2.3c-3,0-5.5-0.8-7.5-2.4c-2.1-1.7-3.2-4-3.2-6.8v-7.6c0-1.4,0.5-2.6,1.6-3.6c1-1,2.3-1.4,3.7-1.4h10.6
			c1.4,0,2.7,0.5,3.7,1.4s1.6,2.2,1.6,3.6v7.4h-7.3V166z"/>
	</g>
</g>
<g class="st5">
	<path class="st4" d="M271.9,264.8v-2.2c0-1-0.5-1.5-1.5-1.5h-0.5c-1,0-1.4,0.5-1.4,1.5v4.2c0,0.5,0.1,0.8,0.3,0.9
		c0.2,0.2,0.5,0.4,0.9,0.6l3.2,1.7c0.7,0.4,1.2,0.7,1.5,0.9c0.3,0.2,0.5,0.5,0.7,0.8c0.2,0.3,0.2,0.9,0.2,1.8v5.4
		c0,2.8-1.4,4.2-4.1,4.2h-2.1c-2.7,0-4-1.5-4-4.6v-1.3h3.4v1.4c0,1,0.5,1.5,1.5,1.5h0.6c0.9,0,1.3-0.5,1.3-1.5v-4.3
		c0-0.5-0.1-0.8-0.3-0.9c-0.2-0.2-0.5-0.4-0.9-0.6l-3.2-1.8c-0.7-0.4-1.2-0.7-1.5-0.9s-0.5-0.6-0.7-1c-0.1-0.4-0.2-0.9-0.2-1.6v-5.1
		c0-2.9,1.3-4.3,4-4.3h2.1c2.7,0,4,1.4,4,4.3v2.5H271.9z"/>
	<path class="st4" d="M278,283.2v-25.1h8.3v3h-5v7.6h4.4v3h-4.4v8.4h5v3H278z"/>
	<path class="st4" d="M292,283.2h-3.4v-20.8c0-2.9,1.3-4.3,4-4.3h2.5c2.7,0,4,1.4,4,4.3v20.8h-3.4V274H292V283.2z M295.8,270.9v-8.4
		c0-1-0.5-1.5-1.5-1.5h-0.9c-1,0-1.5,0.5-1.5,1.5v8.4H295.8z"/>
	<path class="st4" d="M308.6,264.8v-2.2c0-1-0.5-1.5-1.5-1.5h-0.5c-1,0-1.4,0.5-1.4,1.5v4.2c0,0.5,0.1,0.8,0.3,0.9
		c0.2,0.2,0.5,0.4,0.9,0.6l3.2,1.7c0.7,0.4,1.2,0.7,1.5,0.9c0.3,0.2,0.5,0.5,0.7,0.8c0.2,0.3,0.2,0.9,0.2,1.8v5.4
		c0,2.8-1.4,4.2-4.1,4.2h-2.1c-2.7,0-4-1.5-4-4.6v-1.3h3.4v1.4c0,1,0.5,1.5,1.5,1.5h0.6c0.9,0,1.3-0.5,1.3-1.5v-4.3
		c0-0.5-0.1-0.8-0.3-0.9c-0.2-0.2-0.5-0.4-0.9-0.6l-3.2-1.8c-0.7-0.4-1.2-0.7-1.5-0.9s-0.5-0.6-0.7-1c-0.1-0.4-0.2-0.9-0.2-1.6v-5.1
		c0-2.9,1.3-4.3,4-4.3h2.1c2.7,0,4,1.4,4,4.3v2.5H308.6z"/>
	<path class="st4" d="M318.6,283.2c-2.7,0-4.1-1.4-4.1-4.3v-16.6c0-2.9,1.3-4.3,4-4.3h3.2c2.7,0,4,1.4,4,4.3v16.6
		c0,2.8-1.4,4.3-4.1,4.3H318.6z M319.4,280.1h1.7c0.9,0,1.3-0.5,1.3-1.5v-16.1c0-1-0.5-1.5-1.5-1.5h-1.6c-1,0-1.5,0.5-1.5,1.5v16.1
		C317.9,279.7,318.4,280.1,319.4,280.1z"/>
	<path class="st4" d="M335.8,270.2v-12.1h3.4v25.1h-3.4v-5l-3.6-11.4v16.5h-3.4v-25.1h3.4L335.8,270.2z"/>
	<path class="st4" d="M351.8,283.2c-2.7,0-4.1-1.4-4.1-4.3v-16.6c0-2.9,1.3-4.3,4-4.3h3.2c2.7,0,4,1.4,4,4.3v16.6
		c0,2.8-1.4,4.3-4.1,4.3H351.8z M352.6,280.1h1.7c0.9,0,1.3-0.5,1.3-1.5v-16.1c0-1-0.5-1.5-1.5-1.5h-1.6c-1,0-1.5,0.5-1.5,1.5v16.1
		C351.1,279.7,351.6,280.1,352.6,280.1z"/>
	<path class="st4" d="M368.9,270.2v-12.1h3.4v25.1h-3.4v-5l-3.6-11.4v16.5H362v-25.1h3.4L368.9,270.2z"/>
	<path class="st4" d="M375.4,283.2v-25.1h8.3v3h-5v7.6h4.4v3h-4.4v8.4h5v3H375.4z"/>
</g>
</svg>
