<?xml version="1.0" encoding="utf-8"?>
<!-- Generator: Adobe Illustrator 21.0.0, SVG Export Plug-In . SVG Version: 6.00 Build 0)  -->
<svg version="1.1" id="Слой_1" xmlns="http://www.w3.org/2000/svg" xmlns:xlink="http://www.w3.org/1999/xlink" x="0px" y="0px"
     viewBox="0 0 300 300" style="enable-background:new 0 0 300 300;" xml:space="preserve">
<style type="text/css">
    .st0{fill:#A9A9A9;}
</style>
<path class="st0" d="M267.2,97.4h-66.4V28.7C200.9,15,190.3,4,177,4h-55.7C108,4,97.4,15,97.4,28.7v68.7H31.9
    c-13.3,0-23.9,11-23.9,24.7v57.7c0,13.7,10.6,24.7,23.9,24.7h66.4v68.7c0,13.7,10.6,24.7,23.9,24.7h55.7c13.3,0,23.9-11,23.9-24.7
    v-68.7h66.4c13.3,0,23.9-11,23.9-24.7v-57.7C291.1,108.4,280.5,97.4,267.2,97.4z"/>
</svg>
