<?xml version="1.0" encoding="utf-8"?>
<!-- Generator: Adobe Illustrator 21.0.0, SVG Export Plug-In . SVG Version: 6.00 Build 0)  -->
<svg version="1.1" id="Слой_1" xmlns="http://www.w3.org/2000/svg" xmlns:xlink="http://www.w3.org/1999/xlink" x="0px" y="0px"
     viewBox="0 0 300 300" style="enable-background:new 0 0 300 300;" xml:space="preserve">
<style type="text/css">
    .st0{fill:#A9A9A9;}
</style>
<path class="st0" d="M269,100.7c0,19.4,0,37.8,0,57.2c0,5.5-0.9,10.1-3.7,14.8c-26.7,48.9-62.7,89.5-108.8,121.7
    c-5.5,3.7-9.2,3.7-14.8,0C96.5,263,60.6,222.4,33.8,174.5c-2.8-5.5-3.7-11.1-3.7-16.6c0-36,0.9-71.9,0-107.9
    c-0.9-26.7,19.4-30.4,36.9-35C97.5,7.5,124.2,2,154.6,2c28.6,0,71,10.1,86.7,14.8c12,3.7,24.9,8.3,26.7,20.3
    c0.9,10.1,0,20.3,0.9,30.4C269,78.6,269,89.6,269,100.7L269,100.7z"/>
</svg>
